<svg viewBox="0 -16 784 192" xmlns="http://www.w3.org/2000/svg">
<rect fill="#EEEEEE" height="160" stroke="darkblue" width="784" x="0" y="0"/>
<rect fill="#EEEEEE" height="16" stroke="darkblue" width="112" x="0" y="-16"/>
<text dominant-baseline="middle" font-family="monospace" font-size="10px" text-anchor="middle" x="56" y="-8">
0
</text>
<rect fill="#EEEEEE" height="16" stroke="darkblue" width="112" x="0" y="160"/>
<text dominant-baseline="middle" font-family="monospace" font-size="10px" text-anchor="middle" x="56" y="168">
0
</text>
<line stroke="#DFDFDF" stroke-dasharray="1,1" stroke-width="1" x1="0" x2="0" y1="0" y2="160"/>
<rect fill="#EEEEEE" height="16" stroke="darkblue" width="112" x="112" y="-16"/>
<text dominant-baseline="middle" font-family="monospace" font-size="10px" text-anchor="middle" x="168" y="-8">
1
</text>
<rect fill="#EEEEEE" height="16" stroke="darkblue" width="112" x="112" y="160"/>
<text dominant-baseline="middle" font-family="monospace" font-size="10px" text-anchor="middle" x="168" y="168">
1
</text>
<line stroke="#DFDFDF" stroke-dasharray="1,1" stroke-width="1" x1="112" x2="112" y1="0" y2="160"/>
<rect fill="#EEEEEE" height="16" stroke="darkblue" width="112" x="224" y="-16"/>
<text dominant-baseline="middle" font-family="monospace" font-size="10px" text-anchor="middle" x="280" y="-8">
2
</text>
<rect fill="#EEEEEE" height="16" stroke="darkblue" width="112" x="224" y="160"/>
<text dominant-baseline="middle" font-family="monospace" font-size="10px" text-anchor="middle" x="280" y="168">
2
</text>
<line stroke="#DFDFDF" stroke-dasharray="1,1" stroke-width="1" x1="224" x2="224" y1="0" y2="160"/>
<rect fill="#EEEEEE" height="16" stroke="darkblue" width="112" x="336" y="-16"/>
<text dominant-baseline="middle" font-family="monospace" font-size="10px" text-anchor="middle" x="392" y="-8">
3
</text>
<rect fill="#EEEEEE" height="16" stroke="darkblue" width="112" x="336" y="160"/>
<text dominant-baseline="middle" font-family="monospace" font-size="10px" text-anchor="middle" x="392" y="168">
3
</text>
<line stroke="#DFDFDF" stroke-dasharray="1,1" stroke-width="1" x1="336" x2="336" y1="0" y2="160"/>
<rect fill="#EEEEEE" height="16" stroke="darkblue" width="112" x="448" y="-16"/>
<text dominant-baseline="middle" font-family="monospace" font-size="10px" text-anchor="middle" x="504" y="-8">
4
</text>
<rect fill="#EEEEEE" height="16" stroke="darkblue" width="112" x="448" y="160"/>
<text dominant-baseline="middle" font-family="monospace" font-size="10px" text-anchor="middle" x="504" y="168">
4
</text>
<line stroke="#DFDFDF" stroke-dasharray="1,1" stroke-width="1" x1="448" x2="448" y1="0" y2="160"/>
<rect fill="#EEEEEE" height="16" stroke="darkblue" width="112" x="560" y="-16"/>
<text dominant-baseline="middle" font-family="monospace" font-size="10px" text-anchor="middle" x="616" y="-8">
5
</text>
<rect fill="#EEEEEE" height="16" stroke="darkblue" width="112" x="560" y="160"/>
<text dominant-baseline="middle" font-family="monospace" font-size="10px" text-anchor="middle" x="616" y="168">
5
</text>
<line stroke="#DFDFDF" stroke-dasharray="1,1" stroke-width="1" x1="560" x2="560" y1="0" y2="160"/>
<rect fill="#EEEEEE" height="16" stroke="darkblue" width="112" x="672" y="-16"/>
<text dominant-baseline="middle" font-family="monospace" font-size="10px" text-anchor="middle" x="728" y="-8">
6
</text>
<rect fill="#EEEEEE" height="16" stroke="darkblue" width="112" x="672" y="160"/>
<text dominant-baseline="middle" font-family="monospace" font-size="10px" text-anchor="middle" x="728" y="168">
6
</text>
<line stroke="#DFDFDF" stroke-dasharray="1,1" stroke-width="1" x1="672" x2="672" y1="0" y2="160"/>
<rect fill="#99FFCC" height="16" stroke="gray" width="784" x="0" y="0"/>
<text dominant-baseline="middle" font-family="monospace" font-size="10px" text-anchor="middle" x="392" y="8">
val|7|
</text>
<rect fill="#CCCC99" height="16" stroke="gray" width="336" x="0" y="16"/>
<text dominant-baseline="middle" font-family="monospace" font-size="10px" text-anchor="middle" x="168" y="24">
None(000)
</text>
<rect fill="#CCCCCC" height="16" stroke="gray" width="336" x="0" y="32"/>
<text dominant-baseline="middle" font-family="monospace" font-size="10px" text-anchor="middle" x="168" y="40">
Bool(001)
</text>
<rect fill="#CCCCFF" height="16" stroke="gray" width="112" x="336" y="32"/>
<text dominant-baseline="middle" font-family="monospace" font-size="10px" text-anchor="middle" x="392" y="40">
Bool b1
</text>
<rect fill="#CCFF99" height="32" stroke="gray" width="336" x="0" y="48"/>
<text dominant-baseline="middle" font-family="monospace" font-size="10px" text-anchor="middle" x="168" y="64">
Tuple(010)
</text>
<rect fill="#CCFFCC" height="16" stroke="gray" width="448" x="336" y="48"/>
<text dominant-baseline="middle" font-family="monospace" font-size="10px" text-anchor="middle" x="560" y="56">
(Tuple)
</text>
<rect fill="#CCFFFF" height="16" stroke="gray" width="112" x="336" y="64"/>
<text dominant-baseline="middle" font-family="monospace" font-size="10px" text-anchor="middle" x="392" y="72">
.0 b1
</text>
<rect fill="#FFCC99" height="16" stroke="gray" width="336" x="448" y="64"/>
<text dominant-baseline="middle" font-family="monospace" font-size="10px" text-anchor="middle" x="616" y="72">
.1 b3
</text>
<rect fill="#FFCCCC" height="32" stroke="gray" width="336" x="0" y="80"/>
<text dominant-baseline="middle" font-family="monospace" font-size="10px" text-anchor="middle" x="168" y="96">
Array(011)
</text>
<rect fill="#FFCCFF" height="16" stroke="gray" width="336" x="336" y="80"/>
<text dominant-baseline="middle" font-family="monospace" font-size="10px" text-anchor="middle" x="504" y="88">
Array[3]
</text>
<rect fill="#FFFF99" height="16" stroke="gray" width="112" x="336" y="96"/>
<text dominant-baseline="middle" font-family="monospace" font-size="10px" text-anchor="middle" x="392" y="104">
[0] b1
</text>
<rect fill="#FFFFCC" height="16" stroke="gray" width="112" x="448" y="96"/>
<text dominant-baseline="middle" font-family="monospace" font-size="10px" text-anchor="middle" x="504" y="104">
[1] b1
</text>
<rect fill="#99FFCC" height="16" stroke="gray" width="112" x="560" y="96"/>
<text dominant-baseline="middle" font-family="monospace" font-size="10px" text-anchor="middle" x="616" y="104">
[2] b1
</text>
<rect fill="#CCCC99" height="32" stroke="gray" width="336" x="0" y="112"/>
<text dominant-baseline="middle" font-family="monospace" font-size="10px" text-anchor="middle" x="168" y="128">
Strct(100)
</text>
<rect fill="#CCCCCC" height="16" stroke="gray" width="448" x="336" y="112"/>
<text dominant-baseline="middle" font-family="monospace" font-size="10px" text-anchor="middle" x="560" y="120">
{Strct}
</text>
<rect fill="#CCCCFF" height="16" stroke="gray" width="112" x="336" y="128"/>
<text dominant-baseline="middle" font-family="monospace" font-size="10px" text-anchor="middle" x="392" y="136">
.a b1
</text>
<rect fill="#CCFF99" height="16" stroke="gray" width="336" x="448" y="128"/>
<text dominant-baseline="middle" font-family="monospace" font-size="10px" text-anchor="middle" x="616" y="136">
.b b3
</text>
<rect fill="#CCFFCC" height="16" stroke="gray" width="336" x="0" y="144"/>
<text dominant-baseline="middle" font-family="monospace" font-size="10px" text-anchor="middle" x="168" y="152">
Invalid(101)
</text>
</svg>