<svg viewBox="0 0 821 140" xmlns="http://www.w3.org/2000/svg">
<defs>
<clipPath id="clip">
<rect height="140" width="821" x="0" y="0"/>
</clipPath>
</defs>
<rect fill="#0B151D" height="140" stroke="darkblue" width="821" x="0" y="0"/>
<line stroke="#333333" stroke-width="1" x1="170" x2="170" y1="0" y2="140"/>
<text clip-path="url(#clip)" dominant-baseline="middle" fill="#D4D4D4" font-family="monospace" font-size="10px" text-anchor="end" x="170" y="10">
0
</text>
<line stroke="#333333" stroke-width="1" x1="270" x2="270" y1="0" y2="140"/>
<text clip-path="url(#clip)" dominant-baseline="middle" fill="#D4D4D4" font-family="monospace" font-size="10px" text-anchor="middle" x="270" y="10">
700
</text>
<line stroke="#333333" stroke-width="1" x1="370" x2="370" y1="0" y2="140"/>
<text clip-path="url(#clip)" dominant-baseline="middle" fill="#D4D4D4" font-family="monospace" font-size="10px" text-anchor="middle" x="370" y="10">
800
</text>
<line stroke="#333333" stroke-width="1" x1="470" x2="470" y1="0" y2="140"/>
<text clip-path="url(#clip)" dominant-baseline="middle" fill="#D4D4D4" font-family="monospace" font-size="10px" text-anchor="middle" x="470" y="10">
900
</text>
<line stroke="#333333" stroke-width="1" x1="570" x2="570" y1="0" y2="140"/>
<text clip-path="url(#clip)" dominant-baseline="middle" fill="#D4D4D4" font-family="monospace" font-size="10px" text-anchor="middle" x="570" y="10">
1000
</text>
<line stroke="#333333" stroke-width="1" x1="670" x2="670" y1="0" y2="140"/>
<text clip-path="url(#clip)" dominant-baseline="middle" fill="#D4D4D4" font-family="monospace" font-size="10px" text-anchor="middle" x="670" y="10">
1100
</text>
<line stroke="#333333" stroke-width="1" x1="770" x2="770" y1="0" y2="140"/>
<text clip-path="url(#clip)" dominant-baseline="middle" fill="#D4D4D4" font-family="monospace" font-size="10px" text-anchor="middle" x="770" y="10">
1200
</text>
<line stroke="#333333" stroke-width="1" x1="870" x2="870" y1="0" y2="140"/>
<text clip-path="url(#clip)" dominant-baseline="middle" fill="#D4D4D4" font-family="monospace" font-size="10px" text-anchor="end" x="870" y="10">
1300
</text>
<rect fill="#333333" height="140" width="50" x="170" y="0"/>
<text dominant-baseline="middle" fill="#D4D4D4" font-family="monospace" font-size="10px" text-anchor="start" x="3" y="10">
Time:
</text>
<text dominant-baseline="middle" fill="#D4D4D4" font-family="monospace" font-size="10px" text-anchor="start" x="3" xml:space="preserve" y="30">
.count.dff.input
<title>top.count.dff.input</title>
</text>
<path d="M 221 30 L 224 23 L 317 23 L 320 30 L 317 37 L 224 37 Z" fill="none" stroke="#56C126" stroke-width="1"/>
<text dominant-baseline="middle" fill="#D4D4D4" font-family="monospace" font-size="10px" text-anchor="middle" x="270" xml:space="preserve" y="30">
7
<title>7</title>
</text>
<path d="M 320 30 L 323 23 L 417 23 L 420 30 L 417 37 L 323 37 Z" fill="none" stroke="#56C126" stroke-width="1"/>
<text dominant-baseline="middle" fill="#D4D4D4" font-family="monospace" font-size="10px" text-anchor="middle" x="370" xml:space="preserve" y="30">
0
<title>0</title>
</text>
<path d="M 420 30 L 423 23 L 517 23 L 520 30 L 517 37 L 423 37 Z" fill="none" stroke="#56C126" stroke-width="1"/>
<text dominant-baseline="middle" fill="#D4D4D4" font-family="monospace" font-size="10px" text-anchor="middle" x="470" xml:space="preserve" y="30">
1
<title>1</title>
</text>
<path d="M 520 30 L 523 23 L 617 23 L 620 30 L 617 37 L 523 37 Z" fill="none" stroke="#56C126" stroke-width="1"/>
<text dominant-baseline="middle" fill="#D4D4D4" font-family="monospace" font-size="10px" text-anchor="middle" x="570" xml:space="preserve" y="30">
2
<title>2</title>
</text>
<path d="M 620 30 L 623 23 L 717 23 L 720 30 L 717 37 L 623 37 Z" fill="none" stroke="#56C126" stroke-width="1"/>
<text dominant-baseline="middle" fill="#D4D4D4" font-family="monospace" font-size="10px" text-anchor="middle" x="670" xml:space="preserve" y="30">
3
<title>3</title>
</text>
<path d="M 720 30 L 723 23 L 817 23 L 820 30 L 817 37 L 723 37 Z" fill="none" stroke="#56C126" stroke-width="1"/>
<text dominant-baseline="middle" fill="#D4D4D4" font-family="monospace" font-size="10px" text-anchor="middle" x="770" xml:space="preserve" y="30">
4
<title>4</title>
</text>
<text dominant-baseline="middle" fill="#D4D4D4" font-family="monospace" font-size="10px" text-anchor="start" x="3" xml:space="preserve" y="50">
.count.dff.output
<title>top.count.dff.output</title>
</text>
<path d="M 221 50 L 224 43 L 317 43 L 320 50 L 317 57 L 224 57 Z" fill="none" stroke="#56C126" stroke-width="1"/>
<text dominant-baseline="middle" fill="#D4D4D4" font-family="monospace" font-size="10px" text-anchor="middle" x="270" xml:space="preserve" y="50">
6
<title>6</title>
</text>
<path d="M 320 50 L 323 43 L 417 43 L 420 50 L 417 57 L 323 57 Z" fill="none" stroke="#56C126" stroke-width="1"/>
<text dominant-baseline="middle" fill="#D4D4D4" font-family="monospace" font-size="10px" text-anchor="middle" x="370" xml:space="preserve" y="50">
7
<title>7</title>
</text>
<path d="M 420 50 L 423 43 L 517 43 L 520 50 L 517 57 L 423 57 Z" fill="none" stroke="#56C126" stroke-width="1"/>
<text dominant-baseline="middle" fill="#D4D4D4" font-family="monospace" font-size="10px" text-anchor="middle" x="470" xml:space="preserve" y="50">
0
<title>0</title>
</text>
<path d="M 520 50 L 523 43 L 617 43 L 620 50 L 617 57 L 523 57 Z" fill="none" stroke="#56C126" stroke-width="1"/>
<text dominant-baseline="middle" fill="#D4D4D4" font-family="monospace" font-size="10px" text-anchor="middle" x="570" xml:space="preserve" y="50">
1
<title>1</title>
</text>
<path d="M 620 50 L 623 43 L 717 43 L 720 50 L 717 57 L 623 57 Z" fill="none" stroke="#56C126" stroke-width="1"/>
<text dominant-baseline="middle" fill="#D4D4D4" font-family="monospace" font-size="10px" text-anchor="middle" x="670" xml:space="preserve" y="50">
2
<title>2</title>
</text>
<path d="M 720 50 L 723 43 L 817 43 L 820 50 L 817 57 L 723 57 Z" fill="none" stroke="#56C126" stroke-width="1"/>
<text dominant-baseline="middle" fill="#D4D4D4" font-family="monospace" font-size="10px" text-anchor="middle" x="770" xml:space="preserve" y="50">
3
<title>3</title>
</text>
<text dominant-baseline="middle" fill="#D4D4D4" font-family="monospace" font-size="10px" text-anchor="start" x="3" xml:space="preserve" y="70">
.clock
<title>top.clock</title>
</text>
<rect fill="#1C400C" height="14" stroke="none" width="47" x="222" y="63"/>
<path d="M 221 70 L 221 63 L 270 63 L 270 70" fill="none" stroke="#56C126" stroke-width="1"/>
<path d="M 270 70 L 270 77 L 320 77 L 320 70" fill="none" stroke="#56C126" stroke-width="1"/>
<rect fill="#1C400C" height="14" stroke="none" width="48" x="321" y="63"/>
<path d="M 320 70 L 320 63 L 370 63 L 370 70" fill="none" stroke="#56C126" stroke-width="1"/>
<path d="M 370 70 L 370 77 L 420 77 L 420 70" fill="none" stroke="#56C126" stroke-width="1"/>
<rect fill="#1C400C" height="14" stroke="none" width="48" x="421" y="63"/>
<path d="M 420 70 L 420 63 L 470 63 L 470 70" fill="none" stroke="#56C126" stroke-width="1"/>
<path d="M 470 70 L 470 77 L 520 77 L 520 70" fill="none" stroke="#56C126" stroke-width="1"/>
<rect fill="#1C400C" height="14" stroke="none" width="48" x="521" y="63"/>
<path d="M 520 70 L 520 63 L 570 63 L 570 70" fill="none" stroke="#56C126" stroke-width="1"/>
<path d="M 570 70 L 570 77 L 620 77 L 620 70" fill="none" stroke="#56C126" stroke-width="1"/>
<rect fill="#1C400C" height="14" stroke="none" width="48" x="621" y="63"/>
<path d="M 620 70 L 620 63 L 670 63 L 670 70" fill="none" stroke="#56C126" stroke-width="1"/>
<path d="M 670 70 L 670 77 L 720 77 L 720 70" fill="none" stroke="#56C126" stroke-width="1"/>
<rect fill="#1C400C" height="14" stroke="none" width="48" x="721" y="63"/>
<path d="M 720 70 L 720 63 L 770 63 L 770 70" fill="none" stroke="#56C126" stroke-width="1"/>
<path d="M 770 70 L 770 77 L 820 77 L 820 70" fill="none" stroke="#56C126" stroke-width="1"/>
<text dominant-baseline="middle" fill="#D4D4D4" font-family="monospace" font-size="10px" text-anchor="start" x="3" xml:space="preserve" y="90">
.input
<title>top.input</title>
</text>
<rect fill="#1C400C" height="14" stroke="none" width="598" x="222" y="83"/>
<path d="M 221 90 L 221 83 L 821 83 L 821 90" fill="none" stroke="#56C126" stroke-width="1"/>
<text dominant-baseline="middle" fill="#D4D4D4" font-family="monospace" font-size="10px" text-anchor="start" x="3" xml:space="preserve" y="110">
.outputs
<title>top.outputs</title>
</text>
<path d="M 221 110 L 224 103 L 317 103 L 320 110 L 317 117 L 224 117 Z" fill="none" stroke="#56C126" stroke-width="1"/>
<text dominant-baseline="middle" fill="#D4D4D4" font-family="monospace" font-size="10px" text-anchor="middle" x="270" xml:space="preserve" y="110">
6
<title>6</title>
</text>
<path d="M 320 110 L 323 103 L 417 103 L 420 110 L 417 117 L 323 117 Z" fill="none" stroke="#56C126" stroke-width="1"/>
<text dominant-baseline="middle" fill="#D4D4D4" font-family="monospace" font-size="10px" text-anchor="middle" x="370" xml:space="preserve" y="110">
7
<title>7</title>
</text>
<path d="M 420 110 L 423 103 L 517 103 L 520 110 L 517 117 L 423 117 Z" fill="none" stroke="#56C126" stroke-width="1"/>
<text dominant-baseline="middle" fill="#D4D4D4" font-family="monospace" font-size="10px" text-anchor="middle" x="470" xml:space="preserve" y="110">
0
<title>0</title>
</text>
<path d="M 520 110 L 523 103 L 617 103 L 620 110 L 617 117 L 523 117 Z" fill="none" stroke="#56C126" stroke-width="1"/>
<text dominant-baseline="middle" fill="#D4D4D4" font-family="monospace" font-size="10px" text-anchor="middle" x="570" xml:space="preserve" y="110">
1
<title>1</title>
</text>
<path d="M 620 110 L 623 103 L 717 103 L 720 110 L 717 117 L 623 117 Z" fill="none" stroke="#56C126" stroke-width="1"/>
<text dominant-baseline="middle" fill="#D4D4D4" font-family="monospace" font-size="10px" text-anchor="middle" x="670" xml:space="preserve" y="110">
2
<title>2</title>
</text>
<path d="M 720 110 L 723 103 L 817 103 L 820 110 L 817 117 L 723 117 Z" fill="none" stroke="#56C126" stroke-width="1"/>
<text dominant-baseline="middle" fill="#D4D4D4" font-family="monospace" font-size="10px" text-anchor="middle" x="770" xml:space="preserve" y="110">
3
<title>3</title>
</text>
<text dominant-baseline="middle" fill="#D4D4D4" font-family="monospace" font-size="10px" text-anchor="start" x="3" xml:space="preserve" y="130">
.reset
<title>top.reset</title>
</text>
<path d="M 221 130 L 221 137 L 821 137 L 821 130" fill="none" stroke="#56C126" stroke-width="1"/>
</svg>