<svg viewBox="0 -16 720 208" xmlns="http://www.w3.org/2000/svg">
<rect fill="#EEEEEE" height="176" stroke="darkblue" width="720" x="0" y="0"/>
<rect fill="#EEEEEE" height="16" stroke="darkblue" width="240" x="480" y="0"/>
<text dominant-baseline="middle" font-family="monospace" font-size="10px" text-anchor="middle" x="600" y="8">
0
</text>
<rect fill="#EEEEEE" height="16" stroke="darkblue" width="240" x="240" y="0"/>
<text dominant-baseline="middle" font-family="monospace" font-size="10px" text-anchor="middle" x="360" y="8">
7:1
</text>
<rect fill="#EEEEEE" height="16" stroke="darkblue" width="240" x="0" y="0"/>
<text dominant-baseline="middle" font-family="monospace" font-size="10px" text-anchor="middle" x="120" y="8">
10:8
</text>
<rect fill="#99FFCC" height="16" stroke="gray" width="720" x="0" y="16"/>
<text dominant-baseline="middle" font-family="monospace" font-size="10px" text-anchor="middle" x="360" y="24">
State (Naive)|11|
</text>
<rect fill="#CCCC99" height="16" stroke="gray" width="240" x="0" y="32"/>
<text dominant-baseline="middle" font-family="monospace" font-size="10px" text-anchor="middle" x="120" y="40">
Idle(000)
</text>
<rect fill="#CCCCCC" height="32" stroke="gray" width="240" x="0" y="48"/>
<text dominant-baseline="middle" font-family="monospace" font-size="10px" text-anchor="middle" x="120" y="64">
Processing(001)
</text>
<rect fill="#CCCCFF" height="16" stroke="gray" width="480" x="240" y="48"/>
<text dominant-baseline="middle" font-family="monospace" font-size="10px" text-anchor="middle" x="480" y="56">
(Processing)
</text>
<rect fill="#CCFF99" height="16" stroke="gray" width="480" x="240" y="64"/>
<text dominant-baseline="middle" font-family="monospace" font-size="10px" text-anchor="middle" x="480" y="72">
.0 b8
</text>
<rect fill="#CCFFCC" height="32" stroke="gray" width="240" x="0" y="80"/>
<text dominant-baseline="middle" font-family="monospace" font-size="10px" text-anchor="middle" x="120" y="96">
Sending(010)
</text>
<rect fill="#CCFFFF" height="16" stroke="gray" width="240" x="480" y="80"/>
<text dominant-baseline="middle" font-family="monospace" font-size="10px" text-anchor="middle" x="600" y="88">
(Sending)
</text>
<rect fill="#FFCC99" height="16" stroke="gray" width="240" x="480" y="96"/>
<text dominant-baseline="middle" font-family="monospace" font-size="10px" text-anchor="middle" x="600" y="104">
.0 b1
</text>
<rect fill="#FFCCCC" height="16" stroke="gray" width="240" x="0" y="112"/>
<text dominant-baseline="middle" font-family="monospace" font-size="10px" text-anchor="middle" x="120" y="120">
Done(011)
</text>
<rect fill="#FFCCFF" height="16" stroke="gray" width="240" x="0" y="128"/>
<text dominant-baseline="middle" font-family="monospace" font-size="10px" text-anchor="middle" x="120" y="136">
Fault(100)
</text>
<rect fill="#FFFF99" height="16" stroke="gray" width="240" x="0" y="144"/>
<text dominant-baseline="middle" font-family="monospace" font-size="10px" text-anchor="middle" x="120" y="152">
Reset(101)
</text>
<rect fill="#EEEEEE" height="16" stroke="darkblue" width="240" x="480" y="160"/>
<text dominant-baseline="middle" font-family="monospace" font-size="10px" text-anchor="middle" x="600" y="168">
0
</text>
<rect fill="#EEEEEE" height="16" stroke="darkblue" width="240" x="240" y="160"/>
<text dominant-baseline="middle" font-family="monospace" font-size="10px" text-anchor="middle" x="360" y="168">
7:1
</text>
<rect fill="#EEEEEE" height="16" stroke="darkblue" width="240" x="0" y="160"/>
<text dominant-baseline="middle" font-family="monospace" font-size="10px" text-anchor="middle" x="120" y="168">
10:8
</text>
</svg>