<svg viewBox="0 -16 576 112" xmlns="http://www.w3.org/2000/svg">
<rect fill="#EEEEEE" height="80" stroke="darkblue" width="576" x="0" y="0"/>
<rect fill="#EEEEEE" height="16" stroke="darkblue" width="144" x="432" y="0"/>
<text dominant-baseline="middle" font-family="monospace" font-size="10px" text-anchor="middle" x="504" y="8">
3:0
</text>
<rect fill="#EEEEEE" height="16" stroke="darkblue" width="144" x="288" y="0"/>
<text dominant-baseline="middle" font-family="monospace" font-size="10px" text-anchor="middle" x="360" y="8">
4
</text>
<rect fill="#EEEEEE" height="16" stroke="darkblue" width="144" x="144" y="0"/>
<text dominant-baseline="middle" font-family="monospace" font-size="10px" text-anchor="middle" x="216" y="8">
10:5
</text>
<rect fill="#EEEEEE" height="16" stroke="darkblue" width="144" x="0" y="0"/>
<text dominant-baseline="middle" font-family="monospace" font-size="10px" text-anchor="middle" x="72" y="8">
14:11
</text>
<rect fill="#99FFCC" height="16" stroke="gray" width="576" x="0" y="16"/>
<text dominant-baseline="middle" font-family="monospace" font-size="10px" text-anchor="middle" x="288" y="24">
{Things}
</text>
<rect fill="#CCCC99" height="16" stroke="gray" width="144" x="432" y="32"/>
<text dominant-baseline="middle" font-family="monospace" font-size="10px" text-anchor="middle" x="504" y="40">
.count b4
</text>
<rect fill="#CCCCCC" height="16" stroke="gray" width="144" x="288" y="32"/>
<text dominant-baseline="middle" font-family="monospace" font-size="10px" text-anchor="middle" x="360" y="40">
.valid b1
</text>
<rect fill="#CCCCFF" height="16" stroke="gray" width="288" x="0" y="32"/>
<text dominant-baseline="middle" font-family="monospace" font-size="10px" text-anchor="middle" x="144" y="40">
(.coordinates)
</text>
<rect fill="#CCFF99" height="16" stroke="gray" width="144" x="144" y="48"/>
<text dominant-baseline="middle" font-family="monospace" font-size="10px" text-anchor="middle" x="216" y="56">
.0 s6
</text>
<rect fill="#CCFFCC" height="16" stroke="gray" width="144" x="0" y="48"/>
<text dominant-baseline="middle" font-family="monospace" font-size="10px" text-anchor="middle" x="72" y="56">
.1 s4
</text>
<rect fill="#EEEEEE" height="16" stroke="darkblue" width="144" x="432" y="64"/>
<text dominant-baseline="middle" font-family="monospace" font-size="10px" text-anchor="middle" x="504" y="72">
3:0
</text>
<rect fill="#EEEEEE" height="16" stroke="darkblue" width="144" x="288" y="64"/>
<text dominant-baseline="middle" font-family="monospace" font-size="10px" text-anchor="middle" x="360" y="72">
4
</text>
<rect fill="#EEEEEE" height="16" stroke="darkblue" width="144" x="144" y="64"/>
<text dominant-baseline="middle" font-family="monospace" font-size="10px" text-anchor="middle" x="216" y="72">
10:5
</text>
<rect fill="#EEEEEE" height="16" stroke="darkblue" width="144" x="0" y="64"/>
<text dominant-baseline="middle" font-family="monospace" font-size="10px" text-anchor="middle" x="72" y="72">
14:11
</text>
</svg>