<svg viewBox="0 0 660 120" xmlns="http://www.w3.org/2000/svg">
<defs>
<clipPath id="clip">
<rect height="120" width="660" x="0" y="0"/>
</clipPath>
</defs>
<rect fill="#0B151D" height="120" stroke="darkblue" width="660" x="0" y="0"/>
<line stroke="#333333" stroke-width="1" x1="160" x2="160" y1="0" y2="120"/>
<text clip-path="url(#clip)" dominant-baseline="middle" fill="#D4D4D4" font-family="monospace" font-size="10px" text-anchor="middle" x="160" y="10">
0
</text>
<line stroke="#333333" stroke-width="1" x1="260" x2="260" y1="0" y2="120"/>
<text clip-path="url(#clip)" dominant-baseline="middle" fill="#D4D4D4" font-family="monospace" font-size="10px" text-anchor="middle" x="260" y="10">
100
</text>
<line stroke="#333333" stroke-width="1" x1="360" x2="360" y1="0" y2="120"/>
<text clip-path="url(#clip)" dominant-baseline="middle" fill="#D4D4D4" font-family="monospace" font-size="10px" text-anchor="middle" x="360" y="10">
200
</text>
<line stroke="#333333" stroke-width="1" x1="460" x2="460" y1="0" y2="120"/>
<text clip-path="url(#clip)" dominant-baseline="middle" fill="#D4D4D4" font-family="monospace" font-size="10px" text-anchor="middle" x="460" y="10">
300
</text>
<line stroke="#333333" stroke-width="1" x1="560" x2="560" y1="0" y2="120"/>
<text clip-path="url(#clip)" dominant-baseline="middle" fill="#D4D4D4" font-family="monospace" font-size="10px" text-anchor="middle" x="560" y="10">
400
</text>
<line stroke="#333333" stroke-width="1" x1="660" x2="660" y1="0" y2="120"/>
<text clip-path="url(#clip)" dominant-baseline="middle" fill="#D4D4D4" font-family="monospace" font-size="10px" text-anchor="end" x="660" y="10">
500
</text>
<text dominant-baseline="middle" fill="#D4D4D4" font-family="monospace" font-size="10px" text-anchor="start" x="3" y="10">
Time:
</text>
<text dominant-baseline="middle" fill="#D4D4D4" font-family="monospace" font-size="10px" text-anchor="start" x="3" xml:space="preserve" y="30">
.kernel_2.a
<title>top.kernel_2.a</title>
</text>
<path d="M 160 30 L 163 23 L 257 23 L 260 30 L 257 37 L 163 37 Z" fill="none" stroke="#56C126" stroke-width="1"/>
<text dominant-baseline="middle" fill="#D4D4D4" font-family="monospace" font-size="10px" text-anchor="middle" x="210" xml:space="preserve" y="30">
(0, 1)
<title>(0, 1)</title>
</text>
<path d="M 260 30 L 263 23 L 357 23 L 360 30 L 357 37 L 263 37 Z" fill="none" stroke="#56C126" stroke-width="1"/>
<text dominant-baseline="middle" fill="#D4D4D4" font-family="monospace" font-size="10px" text-anchor="middle" x="310" xml:space="preserve" y="30">
(4, 2)
<title>(4, 2)</title>
</text>
<path d="M 360 30 L 363 23 L 457 23 L 460 30 L 457 37 L 363 37 Z" fill="none" stroke="#56C126" stroke-width="1"/>
<text dominant-baseline="middle" fill="#D4D4D4" font-family="monospace" font-size="10px" text-anchor="middle" x="410" xml:space="preserve" y="30">
(f, 3)
<title>(f, 3)</title>
</text>
<path d="M 460 30 L 463 23 L 557 23 L 560 30 L 557 37 L 463 37 Z" fill="none" stroke="#56C126" stroke-width="1"/>
<text dominant-baseline="middle" fill="#D4D4D4" font-family="monospace" font-size="10px" text-anchor="middle" x="510" xml:space="preserve" y="30">
(7, 4)
<title>(7, 4)</title>
</text>
<path d="M 560 30 L 563 23 L 657 23 L 660 30 L 657 37 L 563 37 Z" fill="none" stroke="#56C126" stroke-width="1"/>
<text dominant-baseline="middle" fill="#D4D4D4" font-family="monospace" font-size="10px" text-anchor="middle" x="610" xml:space="preserve" y="30">
(4, 5)
<title>(4, 5)</title>
</text>
<text dominant-baseline="middle" fill="#D4D4D4" font-family="monospace" font-size="10px" text-anchor="start" x="3" xml:space="preserve" y="50">
.kernel_2.a.0
<title>top.kernel_2.a.0</title>
</text>
<path d="M 160 50 L 163 43 L 257 43 L 260 50 L 257 57 L 163 57 Z" fill="none" stroke="#56C126" stroke-width="1"/>
<text dominant-baseline="middle" fill="#D4D4D4" font-family="monospace" font-size="10px" text-anchor="middle" x="210" xml:space="preserve" y="50">
0
<title>0</title>
</text>
<path d="M 260 50 L 263 43 L 357 43 L 360 50 L 357 57 L 263 57 Z" fill="none" stroke="#56C126" stroke-width="1"/>
<text dominant-baseline="middle" fill="#D4D4D4" font-family="monospace" font-size="10px" text-anchor="middle" x="310" xml:space="preserve" y="50">
4
<title>4</title>
</text>
<path d="M 360 50 L 363 43 L 457 43 L 460 50 L 457 57 L 363 57 Z" fill="none" stroke="#56C126" stroke-width="1"/>
<text dominant-baseline="middle" fill="#D4D4D4" font-family="monospace" font-size="10px" text-anchor="middle" x="410" xml:space="preserve" y="50">
f
<title>f</title>
</text>
<path d="M 460 50 L 463 43 L 557 43 L 560 50 L 557 57 L 463 57 Z" fill="none" stroke="#56C126" stroke-width="1"/>
<text dominant-baseline="middle" fill="#D4D4D4" font-family="monospace" font-size="10px" text-anchor="middle" x="510" xml:space="preserve" y="50">
7
<title>7</title>
</text>
<path d="M 560 50 L 563 43 L 657 43 L 660 50 L 657 57 L 563 57 Z" fill="none" stroke="#56C126" stroke-width="1"/>
<text dominant-baseline="middle" fill="#D4D4D4" font-family="monospace" font-size="10px" text-anchor="middle" x="610" xml:space="preserve" y="50">
4
<title>4</title>
</text>
<text dominant-baseline="middle" fill="#D4D4D4" font-family="monospace" font-size="10px" text-anchor="start" x="3" xml:space="preserve" y="70">
.kernel_2.a.1
<title>top.kernel_2.a.1</title>
</text>
<path d="M 160 70 L 163 63 L 257 63 L 260 70 L 257 77 L 163 77 Z" fill="none" stroke="#56C126" stroke-width="1"/>
<text dominant-baseline="middle" fill="#D4D4D4" font-family="monospace" font-size="10px" text-anchor="middle" x="210" xml:space="preserve" y="70">
1
<title>1</title>
</text>
<path d="M 260 70 L 263 63 L 357 63 L 360 70 L 357 77 L 263 77 Z" fill="none" stroke="#56C126" stroke-width="1"/>
<text dominant-baseline="middle" fill="#D4D4D4" font-family="monospace" font-size="10px" text-anchor="middle" x="310" xml:space="preserve" y="70">
2
<title>2</title>
</text>
<path d="M 360 70 L 363 63 L 457 63 L 460 70 L 457 77 L 363 77 Z" fill="none" stroke="#56C126" stroke-width="1"/>
<text dominant-baseline="middle" fill="#D4D4D4" font-family="monospace" font-size="10px" text-anchor="middle" x="410" xml:space="preserve" y="70">
3
<title>3</title>
</text>
<path d="M 460 70 L 463 63 L 557 63 L 560 70 L 557 77 L 463 77 Z" fill="none" stroke="#56C126" stroke-width="1"/>
<text dominant-baseline="middle" fill="#D4D4D4" font-family="monospace" font-size="10px" text-anchor="middle" x="510" xml:space="preserve" y="70">
4
<title>4</title>
</text>
<path d="M 560 70 L 563 63 L 657 63 L 660 70 L 657 77 L 563 77 Z" fill="none" stroke="#56C126" stroke-width="1"/>
<text dominant-baseline="middle" fill="#D4D4D4" font-family="monospace" font-size="10px" text-anchor="middle" x="610" xml:space="preserve" y="70">
5
<title>5</title>
</text>
<text dominant-baseline="middle" fill="#D4D4D4" font-family="monospace" font-size="10px" text-anchor="start" x="3" xml:space="preserve" y="90">
.kernel_2.b
<title>top.kernel_2.b</title>
</text>
<path d="M 160 90 L 163 83 L 257 83 L 260 90 L 257 97 L 163 97 Z" fill="none" stroke="#56C126" stroke-width="1"/>
<text dominant-baseline="middle" fill="#D4D4D4" font-family="monospace" font-size="10px" text-anchor="middle" x="210" xml:space="preserve" y="90">
0
<title>0</title>
</text>
<path d="M 260 90 L 263 83 L 357 83 L 360 90 L 357 97 L 263 97 Z" fill="none" stroke="#56C126" stroke-width="1"/>
<text dominant-baseline="middle" fill="#D4D4D4" font-family="monospace" font-size="10px" text-anchor="middle" x="310" xml:space="preserve" y="90">
3
<title>3</title>
</text>
<path d="M 360 90 L 363 83 L 457 83 L 460 90 L 457 97 L 363 97 Z" fill="none" stroke="#56C126" stroke-width="1"/>
<text dominant-baseline="middle" fill="#D4D4D4" font-family="monospace" font-size="10px" text-anchor="middle" x="410" xml:space="preserve" y="90">
5
<title>5</title>
</text>
<path d="M 460 90 L 463 83 L 557 83 L 560 90 L 557 97 L 463 97 Z" fill="none" stroke="#56C126" stroke-width="1"/>
<text dominant-baseline="middle" fill="#D4D4D4" font-family="monospace" font-size="10px" text-anchor="middle" x="510" xml:space="preserve" y="90">
7
<title>7</title>
</text>
<path d="M 560 90 L 563 83 L 657 83 L 660 90 L 657 97 L 563 97 Z" fill="none" stroke="#56C126" stroke-width="1"/>
<text dominant-baseline="middle" fill="#D4D4D4" font-family="monospace" font-size="10px" text-anchor="middle" x="610" xml:space="preserve" y="90">
9
<title>9</title>
</text>
<text dominant-baseline="middle" fill="#D4D4D4" font-family="monospace" font-size="10px" text-anchor="start" x="3" xml:space="preserve" y="110">
.kernel_2.output
<title>top.kernel_2.output</title>
</text>
<path d="M 160 110 L 163 103 L 257 103 L 260 110 L 257 117 L 163 117 Z" fill="none" stroke="#56C126" stroke-width="1"/>
<text dominant-baseline="middle" fill="#D4D4D4" font-family="monospace" font-size="10px" text-anchor="middle" x="210" xml:space="preserve" y="110">
0
<title>0</title>
</text>
<path d="M 260 110 L 263 103 L 357 103 L 360 110 L 357 117 L 263 117 Z" fill="none" stroke="#56C126" stroke-width="1"/>
<text dominant-baseline="middle" fill="#D4D4D4" font-family="monospace" font-size="10px" text-anchor="middle" x="310" xml:space="preserve" y="110">
7
<title>7</title>
</text>
<path d="M 360 110 L 363 103 L 457 103 L 460 110 L 457 117 L 363 117 Z" fill="none" stroke="#56C126" stroke-width="1"/>
<text dominant-baseline="middle" fill="#D4D4D4" font-family="monospace" font-size="10px" text-anchor="middle" x="410" xml:space="preserve" y="110">
4
<title>4</title>
</text>
<path d="M 460 110 L 463 103 L 557 103 L 560 110 L 557 117 L 463 117 Z" fill="none" stroke="#56C126" stroke-width="1"/>
<text dominant-baseline="middle" fill="#D4D4D4" font-family="monospace" font-size="10px" text-anchor="middle" x="510" xml:space="preserve" y="110">
e
<title>e</title>
</text>
<path d="M 560 110 L 563 103 L 657 103 L 660 110 L 657 117 L 563 117 Z" fill="none" stroke="#56C126" stroke-width="1"/>
<text dominant-baseline="middle" fill="#D4D4D4" font-family="monospace" font-size="10px" text-anchor="middle" x="610" xml:space="preserve" y="110">
d
<title>d</title>
</text>
</svg>