<svg viewBox="0 0 760 320" xmlns="http://www.w3.org/2000/svg">
<defs>
<clipPath id="clip">
<rect height="320" width="760" x="0" y="0"/>
</clipPath>
</defs>
<rect fill="#0B151D" height="320" stroke="darkblue" width="760" x="0" y="0"/>
<line stroke="#333333" stroke-width="1" x1="160" x2="160" y1="0" y2="320"/>
<text clip-path="url(#clip)" dominant-baseline="middle" fill="#D4D4D4" font-family="monospace" font-size="10px" text-anchor="middle" x="160" y="10">
0
</text>
<line stroke="#333333" stroke-width="1" x1="260" x2="260" y1="0" y2="320"/>
<text clip-path="url(#clip)" dominant-baseline="middle" fill="#D4D4D4" font-family="monospace" font-size="10px" text-anchor="middle" x="260" y="10">
100
</text>
<line stroke="#333333" stroke-width="1" x1="360" x2="360" y1="0" y2="320"/>
<text clip-path="url(#clip)" dominant-baseline="middle" fill="#D4D4D4" font-family="monospace" font-size="10px" text-anchor="middle" x="360" y="10">
200
</text>
<line stroke="#333333" stroke-width="1" x1="460" x2="460" y1="0" y2="320"/>
<text clip-path="url(#clip)" dominant-baseline="middle" fill="#D4D4D4" font-family="monospace" font-size="10px" text-anchor="middle" x="460" y="10">
300
</text>
<line stroke="#333333" stroke-width="1" x1="560" x2="560" y1="0" y2="320"/>
<text clip-path="url(#clip)" dominant-baseline="middle" fill="#D4D4D4" font-family="monospace" font-size="10px" text-anchor="middle" x="560" y="10">
400
</text>
<line stroke="#333333" stroke-width="1" x1="660" x2="660" y1="0" y2="320"/>
<text clip-path="url(#clip)" dominant-baseline="middle" fill="#D4D4D4" font-family="monospace" font-size="10px" text-anchor="middle" x="660" y="10">
500
</text>
<line stroke="#333333" stroke-width="1" x1="760" x2="760" y1="0" y2="320"/>
<text clip-path="url(#clip)" dominant-baseline="middle" fill="#D4D4D4" font-family="monospace" font-size="10px" text-anchor="end" x="760" y="10">
600
</text>
<text dominant-baseline="middle" fill="#D4D4D4" font-family="monospace" font-size="10px" text-anchor="start" x="3" y="10">
Time:
</text>
<text dominant-baseline="middle" fill="#D4D4D4" font-family="monospace" font-size="10px" text-anchor="start" x="3" xml:space="preserve" y="30">
.fsm.event
<title>top.fsm.event</title>
</text>
<path d="M 160 30 L 160 37 L 260 37 L 260 30" fill="none" stroke="#56C126" stroke-width="1"/>
<rect fill="#1C400C" height="14" stroke="none" width="98" x="261" y="23"/>
<path d="M 260 30 L 260 23 L 360 23 L 360 30" fill="none" stroke="#56C126" stroke-width="1"/>
<path d="M 360 30 L 360 37 L 460 37 L 460 30" fill="none" stroke="#56C126" stroke-width="1"/>
<rect fill="#1C400C" height="14" stroke="none" width="298" x="461" y="23"/>
<path d="M 460 30 L 460 23 L 760 23 L 760 30" fill="none" stroke="#56C126" stroke-width="1"/>
<text dominant-baseline="middle" fill="#D4D4D4" font-family="monospace" font-size="10px" text-anchor="start" x="3" xml:space="preserve" y="50">
.fsm.event#Start
<title>top.fsm.event#Start</title>
</text>
<path d="M 160 50 L 163 43 L 257 43 L 260 50 L 257 57 L 163 57 Z" fill="none" stroke="#56C126" stroke-width="1"/>
<text dominant-baseline="middle" fill="#D4D4D4" font-family="monospace" font-size="10px" text-anchor="middle" x="210" xml:space="preserve" y="50">

<title></title>
</text>
<path d="M 360 50 L 363 43 L 457 43 L 460 50 L 457 57 L 363 57 Z" fill="none" stroke="#56C126" stroke-width="1"/>
<text dominant-baseline="middle" fill="#D4D4D4" font-family="monospace" font-size="10px" text-anchor="middle" x="410" xml:space="preserve" y="50">

<title></title>
</text>
<text dominant-baseline="middle" fill="#D4D4D4" font-family="monospace" font-size="10px" text-anchor="start" x="3" xml:space="preserve" y="70">
.fsm.event#Stop
<title>top.fsm.event#Stop</title>
</text>
<path d="M 260 70 L 263 63 L 357 63 L 360 70 L 357 77 L 263 77 Z" fill="none" stroke="#56C126" stroke-width="1"/>
<text dominant-baseline="middle" fill="#D4D4D4" font-family="monospace" font-size="10px" text-anchor="middle" x="310" xml:space="preserve" y="70">

<title></title>
</text>
<path d="M 460 70 L 463 63 L 757 63 L 760 70 L 757 77 L 463 77 Z" fill="none" stroke="#56C126" stroke-width="1"/>
<text dominant-baseline="middle" fill="#D4D4D4" font-family="monospace" font-size="10px" text-anchor="middle" x="610" xml:space="preserve" y="70">

<title></title>
</text>
<text dominant-baseline="middle" fill="#D4D4D4" font-family="monospace" font-size="10px" text-anchor="start" x="3" xml:space="preserve" y="90">
.fsm.next_state
<title>top.fsm.next_state</title>
</text>
<path d="M 160 90 L 163 83 L 257 83 L 260 90 L 257 97 L 163 97 Z" fill="none" stroke="#56C126" stroke-width="1"/>
<text dominant-baseline="middle" fill="#D4D4D4" font-family="monospace" font-size="10px" text-anchor="middle" x="210" xml:space="preserve" y="90">
Running
<title>Running</title>
</text>
<path d="M 260 90 L 263 83 L 357 83 L 360 90 L 357 97 L 263 97 Z" fill="none" stroke="#56C126" stroke-width="1"/>
<text dominant-baseline="middle" fill="#D4D4D4" font-family="monospace" font-size="10px" text-anchor="middle" x="310" xml:space="preserve" y="90">
Paused
<title>Paused</title>
</text>
<path d="M 360 90 L 363 83 L 457 83 L 460 90 L 457 97 L 363 97 Z" fill="none" stroke="#56C126" stroke-width="1"/>
<text dominant-baseline="middle" fill="#D4D4D4" font-family="monospace" font-size="10px" text-anchor="middle" x="410" xml:space="preserve" y="90">
Running
<title>Running</title>
</text>
<path d="M 460 90 L 463 83 L 557 83 L 560 90 L 557 97 L 463 97 Z" fill="none" stroke="#56C126" stroke-width="1"/>
<text dominant-baseline="middle" fill="#D4D4D4" font-family="monospace" font-size="10px" text-anchor="middle" x="510" xml:space="preserve" y="90">
Paused
<title>Paused</title>
</text>
<path d="M 560 90 L 563 83 L 657 83 L 660 90 L 657 97 L 563 97 Z" fill="none" stroke="#56C126" stroke-width="1"/>
<text dominant-baseline="middle" fill="#D4D4D4" font-family="monospace" font-size="10px" text-anchor="middle" x="610" xml:space="preserve" y="90">
Stopped
<title>Stopped</title>
</text>
<path d="M 660 90 L 663 83 L 757 83 L 760 90 L 757 97 L 663 97 Z" fill="none" stroke="#56C126" stroke-width="1"/>
<text dominant-baseline="middle" fill="#D4D4D4" font-family="monospace" font-size="10px" text-anchor="middle" x="710" xml:space="preserve" y="90">
Idle
<title>Idle</title>
</text>
<text dominant-baseline="middle" fill="#D4D4D4" font-family="monospace" font-size="10px" text-anchor="start" x="3" xml:space="preserve" y="110">
   #Idle
<title>top.fsm.next_state#Idle</title>
</text>
<path d="M 660 110 L 663 103 L 757 103 L 760 110 L 757 117 L 663 117 Z" fill="none" stroke="#56C126" stroke-width="1"/>
<text dominant-baseline="middle" fill="#D4D4D4" font-family="monospace" font-size="10px" text-anchor="middle" x="710" xml:space="preserve" y="110">

<title></title>
</text>
<text dominant-baseline="middle" fill="#D4D4D4" font-family="monospace" font-size="10px" text-anchor="start" x="3" xml:space="preserve" y="130">
   #Running
<title>top.fsm.next_state#Running</title>
</text>
<path d="M 160 130 L 163 123 L 257 123 L 260 130 L 257 137 L 163 137 Z" fill="none" stroke="#56C126" stroke-width="1"/>
<text dominant-baseline="middle" fill="#D4D4D4" font-family="monospace" font-size="10px" text-anchor="middle" x="210" xml:space="preserve" y="130">

<title></title>
</text>
<path d="M 360 130 L 363 123 L 457 123 L 460 130 L 457 137 L 363 137 Z" fill="none" stroke="#56C126" stroke-width="1"/>
<text dominant-baseline="middle" fill="#D4D4D4" font-family="monospace" font-size="10px" text-anchor="middle" x="410" xml:space="preserve" y="130">

<title></title>
</text>
<text dominant-baseline="middle" fill="#D4D4D4" font-family="monospace" font-size="10px" text-anchor="start" x="3" xml:space="preserve" y="150">
   #Paused
<title>top.fsm.next_state#Paused</title>
</text>
<path d="M 260 150 L 263 143 L 357 143 L 360 150 L 357 157 L 263 157 Z" fill="none" stroke="#56C126" stroke-width="1"/>
<text dominant-baseline="middle" fill="#D4D4D4" font-family="monospace" font-size="10px" text-anchor="middle" x="310" xml:space="preserve" y="150">

<title></title>
</text>
<path d="M 460 150 L 463 143 L 557 143 L 560 150 L 557 157 L 463 157 Z" fill="none" stroke="#56C126" stroke-width="1"/>
<text dominant-baseline="middle" fill="#D4D4D4" font-family="monospace" font-size="10px" text-anchor="middle" x="510" xml:space="preserve" y="150">

<title></title>
</text>
<text dominant-baseline="middle" fill="#D4D4D4" font-family="monospace" font-size="10px" text-anchor="start" x="3" xml:space="preserve" y="170">
   #Stopped
<title>top.fsm.next_state#Stopped</title>
</text>
<path d="M 560 170 L 563 163 L 657 163 L 660 170 L 657 177 L 563 177 Z" fill="none" stroke="#56C126" stroke-width="1"/>
<text dominant-baseline="middle" fill="#D4D4D4" font-family="monospace" font-size="10px" text-anchor="middle" x="610" xml:space="preserve" y="170">

<title></title>
</text>
<text dominant-baseline="middle" fill="#D4D4D4" font-family="monospace" font-size="10px" text-anchor="start" x="3" xml:space="preserve" y="190">
   #Broken
<title>top.fsm.next_state#Broken</title>
</text>
<text dominant-baseline="middle" fill="#D4D4D4" font-family="monospace" font-size="10px" text-anchor="start" x="3" xml:space="preserve" y="210">
.fsm.state
<title>top.fsm.state</title>
</text>
<path d="M 160 210 L 163 203 L 257 203 L 260 210 L 257 217 L 163 217 Z" fill="none" stroke="#56C126" stroke-width="1"/>
<text dominant-baseline="middle" fill="#D4D4D4" font-family="monospace" font-size="10px" text-anchor="middle" x="210" xml:space="preserve" y="210">
Idle
<title>Idle</title>
</text>
<path d="M 260 210 L 263 203 L 357 203 L 360 210 L 357 217 L 263 217 Z" fill="none" stroke="#56C126" stroke-width="1"/>
<text dominant-baseline="middle" fill="#D4D4D4" font-family="monospace" font-size="10px" text-anchor="middle" x="310" xml:space="preserve" y="210">
Running
<title>Running</title>
</text>
<path d="M 360 210 L 363 203 L 457 203 L 460 210 L 457 217 L 363 217 Z" fill="none" stroke="#56C126" stroke-width="1"/>
<text dominant-baseline="middle" fill="#D4D4D4" font-family="monospace" font-size="10px" text-anchor="middle" x="410" xml:space="preserve" y="210">
Paused
<title>Paused</title>
</text>
<path d="M 460 210 L 463 203 L 557 203 L 560 210 L 557 217 L 463 217 Z" fill="none" stroke="#56C126" stroke-width="1"/>
<text dominant-baseline="middle" fill="#D4D4D4" font-family="monospace" font-size="10px" text-anchor="middle" x="510" xml:space="preserve" y="210">
Running
<title>Running</title>
</text>
<path d="M 560 210 L 563 203 L 657 203 L 660 210 L 657 217 L 563 217 Z" fill="none" stroke="#56C126" stroke-width="1"/>
<text dominant-baseline="middle" fill="#D4D4D4" font-family="monospace" font-size="10px" text-anchor="middle" x="610" xml:space="preserve" y="210">
Paused
<title>Paused</title>
</text>
<path d="M 660 210 L 663 203 L 757 203 L 760 210 L 757 217 L 663 217 Z" fill="none" stroke="#56C126" stroke-width="1"/>
<text dominant-baseline="middle" fill="#D4D4D4" font-family="monospace" font-size="10px" text-anchor="middle" x="710" xml:space="preserve" y="210">
Stopped
<title>Stopped</title>
</text>
<text dominant-baseline="middle" fill="#D4D4D4" font-family="monospace" font-size="10px" text-anchor="start" x="3" xml:space="preserve" y="230">
   #Idle
<title>top.fsm.state#Idle</title>
</text>
<path d="M 160 230 L 163 223 L 257 223 L 260 230 L 257 237 L 163 237 Z" fill="none" stroke="#56C126" stroke-width="1"/>
<text dominant-baseline="middle" fill="#D4D4D4" font-family="monospace" font-size="10px" text-anchor="middle" x="210" xml:space="preserve" y="230">

<title></title>
</text>
<text dominant-baseline="middle" fill="#D4D4D4" font-family="monospace" font-size="10px" text-anchor="start" x="3" xml:space="preserve" y="250">
   #Running
<title>top.fsm.state#Running</title>
</text>
<path d="M 260 250 L 263 243 L 357 243 L 360 250 L 357 257 L 263 257 Z" fill="none" stroke="#56C126" stroke-width="1"/>
<text dominant-baseline="middle" fill="#D4D4D4" font-family="monospace" font-size="10px" text-anchor="middle" x="310" xml:space="preserve" y="250">

<title></title>
</text>
<path d="M 460 250 L 463 243 L 557 243 L 560 250 L 557 257 L 463 257 Z" fill="none" stroke="#56C126" stroke-width="1"/>
<text dominant-baseline="middle" fill="#D4D4D4" font-family="monospace" font-size="10px" text-anchor="middle" x="510" xml:space="preserve" y="250">

<title></title>
</text>
<text dominant-baseline="middle" fill="#D4D4D4" font-family="monospace" font-size="10px" text-anchor="start" x="3" xml:space="preserve" y="270">
   #Paused
<title>top.fsm.state#Paused</title>
</text>
<path d="M 360 270 L 363 263 L 457 263 L 460 270 L 457 277 L 363 277 Z" fill="none" stroke="#56C126" stroke-width="1"/>
<text dominant-baseline="middle" fill="#D4D4D4" font-family="monospace" font-size="10px" text-anchor="middle" x="410" xml:space="preserve" y="270">

<title></title>
</text>
<path d="M 560 270 L 563 263 L 657 263 L 660 270 L 657 277 L 563 277 Z" fill="none" stroke="#56C126" stroke-width="1"/>
<text dominant-baseline="middle" fill="#D4D4D4" font-family="monospace" font-size="10px" text-anchor="middle" x="610" xml:space="preserve" y="270">

<title></title>
</text>
<text dominant-baseline="middle" fill="#D4D4D4" font-family="monospace" font-size="10px" text-anchor="start" x="3" xml:space="preserve" y="290">
   #Stopped
<title>top.fsm.state#Stopped</title>
</text>
<path d="M 660 290 L 663 283 L 757 283 L 760 290 L 757 297 L 663 297 Z" fill="none" stroke="#56C126" stroke-width="1"/>
<text dominant-baseline="middle" fill="#D4D4D4" font-family="monospace" font-size="10px" text-anchor="middle" x="710" xml:space="preserve" y="290">

<title></title>
</text>
<text dominant-baseline="middle" fill="#D4D4D4" font-family="monospace" font-size="10px" text-anchor="start" x="3" xml:space="preserve" y="310">
   #Broken
<title>top.fsm.state#Broken</title>
</text>
</svg>