<svg viewBox="0 0 490 140" xmlns="http://www.w3.org/2000/svg">
<defs>
<clipPath id="clip">
<rect height="140" width="490" x="0" y="0"/>
</clipPath>
</defs>
<rect fill="#0B151D" height="140" stroke="darkblue" width="490" x="0" y="0"/>
<line stroke="#333333" stroke-width="1" x1="90" x2="90" y1="0" y2="140"/>
<text clip-path="url(#clip)" dominant-baseline="middle" fill="#D4D4D4" font-family="monospace" font-size="10px" text-anchor="middle" x="90" y="10">
0
</text>
<line stroke="#333333" stroke-width="1" x1="190" x2="190" y1="0" y2="140"/>
<text clip-path="url(#clip)" dominant-baseline="middle" fill="#D4D4D4" font-family="monospace" font-size="10px" text-anchor="middle" x="190" y="10">
100
</text>
<line stroke="#333333" stroke-width="1" x1="290" x2="290" y1="0" y2="140"/>
<text clip-path="url(#clip)" dominant-baseline="middle" fill="#D4D4D4" font-family="monospace" font-size="10px" text-anchor="middle" x="290" y="10">
200
</text>
<line stroke="#333333" stroke-width="1" x1="390" x2="390" y1="0" y2="140"/>
<text clip-path="url(#clip)" dominant-baseline="middle" fill="#D4D4D4" font-family="monospace" font-size="10px" text-anchor="middle" x="390" y="10">
300
</text>
<line stroke="#333333" stroke-width="1" x1="490" x2="490" y1="0" y2="140"/>
<text clip-path="url(#clip)" dominant-baseline="middle" fill="#D4D4D4" font-family="monospace" font-size="10px" text-anchor="end" x="490" y="10">
400
</text>
<text dominant-baseline="middle" fill="#D4D4D4" font-family="monospace" font-size="10px" text-anchor="start" x="3" y="10">
Time:
</text>
<text dominant-baseline="middle" fill="#D4D4D4" font-family="monospace" font-size="10px" text-anchor="start" x="3" xml:space="preserve" y="30">
.input
<title>top.input</title>
</text>
<path d="M 90 30 L 93 23 L 187 23 L 190 30 L 187 37 L 93 37 Z" fill="none" stroke="#D62246" stroke-width="1"/>
<text dominant-baseline="middle" fill="#D4D4D4" font-family="monospace" font-size="10px" text-anchor="middle" x="140" xml:space="preserve" y="30">
r@((0, 0))
<title>r@((0, 0))</title>
</text>
<path d="M 190 30 L 193 23 L 287 23 L 290 30 L 287 37 L 193 37 Z" fill="none" stroke="#D62246" stroke-width="1"/>
<text dominant-baseline="middle" fill="#D4D4D4" font-family="monospace" font-size="10px" text-anchor="middle" x="240" xml:space="preserve" y="30">
r@((0, 1))
<title>r@((0, 1))</title>
</text>
<path d="M 290 30 L 293 23 L 387 23 L 390 30 L 387 37 L 293 37 Z" fill="none" stroke="#D62246" stroke-width="1"/>
<text dominant-baseline="middle" fill="#D4D4D4" font-family="monospace" font-size="10px" text-anchor="middle" x="340" xml:space="preserve" y="30">
r@((1, 0))
<title>r@((1, 0))</title>
</text>
<path d="M 390 30 L 393 23 L 487 23 L 490 30 L 487 37 L 393 37 Z" fill="none" stroke="#D62246" stroke-width="1"/>
<text dominant-baseline="middle" fill="#D4D4D4" font-family="monospace" font-size="10px" text-anchor="middle" x="440" xml:space="preserve" y="30">
r@((1, 1))
<title>r@((1, 1))</title>
</text>
<text dominant-baseline="middle" fill="#D4D4D4" font-family="monospace" font-size="10px" text-anchor="start" x="3" xml:space="preserve" y="50">
.input@
<title>top.input@</title>
</text>
<path d="M 90 50 L 93 43 L 187 43 L 190 50 L 187 57 L 93 57 Z" fill="none" stroke="#D62246" stroke-width="1"/>
<text dominant-baseline="middle" fill="#D4D4D4" font-family="monospace" font-size="10px" text-anchor="middle" x="140" xml:space="preserve" y="50">
(0, 0)
<title>(0, 0)</title>
</text>
<path d="M 190 50 L 193 43 L 287 43 L 290 50 L 287 57 L 193 57 Z" fill="none" stroke="#D62246" stroke-width="1"/>
<text dominant-baseline="middle" fill="#D4D4D4" font-family="monospace" font-size="10px" text-anchor="middle" x="240" xml:space="preserve" y="50">
(0, 1)
<title>(0, 1)</title>
</text>
<path d="M 290 50 L 293 43 L 387 43 L 390 50 L 387 57 L 293 57 Z" fill="none" stroke="#D62246" stroke-width="1"/>
<text dominant-baseline="middle" fill="#D4D4D4" font-family="monospace" font-size="10px" text-anchor="middle" x="340" xml:space="preserve" y="50">
(1, 0)
<title>(1, 0)</title>
</text>
<path d="M 390 50 L 393 43 L 487 43 L 490 50 L 487 57 L 393 57 Z" fill="none" stroke="#D62246" stroke-width="1"/>
<text dominant-baseline="middle" fill="#D4D4D4" font-family="monospace" font-size="10px" text-anchor="middle" x="440" xml:space="preserve" y="50">
(1, 1)
<title>(1, 1)</title>
</text>
<text dominant-baseline="middle" fill="#D4D4D4" font-family="monospace" font-size="10px" text-anchor="start" x="3" xml:space="preserve" y="70">
   .0
<title>top.input@.0</title>
</text>
<path d="M 90 70 L 90 77 L 290 77 L 290 70" fill="none" stroke="#D62246" stroke-width="1"/>
<rect fill="#470B17" height="14" stroke="none" width="198" x="291" y="63"/>
<path d="M 290 70 L 290 63 L 490 63 L 490 70" fill="none" stroke="#D62246" stroke-width="1"/>
<text dominant-baseline="middle" fill="#D4D4D4" font-family="monospace" font-size="10px" text-anchor="start" x="3" xml:space="preserve" y="90">
   .1
<title>top.input@.1</title>
</text>
<path d="M 90 90 L 90 97 L 190 97 L 190 90" fill="none" stroke="#D62246" stroke-width="1"/>
<rect fill="#470B17" height="14" stroke="none" width="98" x="191" y="83"/>
<path d="M 190 90 L 190 83 L 290 83 L 290 90" fill="none" stroke="#D62246" stroke-width="1"/>
<path d="M 290 90 L 290 97 L 390 97 L 390 90" fill="none" stroke="#D62246" stroke-width="1"/>
<rect fill="#470B17" height="14" stroke="none" width="98" x="391" y="83"/>
<path d="M 390 90 L 390 83 L 490 83 L 490 90" fill="none" stroke="#D62246" stroke-width="1"/>
<text dominant-baseline="middle" fill="#D4D4D4" font-family="monospace" font-size="10px" text-anchor="start" x="3" xml:space="preserve" y="110">
.outputs
<title>top.outputs</title>
</text>
<path d="M 90 110 L 90 117 L 190 117 L 190 110" fill="none" stroke="#D62246" stroke-width="1"/>
<rect fill="#470B17" height="14" stroke="none" width="198" x="191" y="103"/>
<path d="M 190 110 L 190 103 L 390 103 L 390 110" fill="none" stroke="#D62246" stroke-width="1"/>
<path d="M 390 110 L 390 117 L 490 117 L 490 110" fill="none" stroke="#D62246" stroke-width="1"/>
<text dominant-baseline="middle" fill="#D4D4D4" font-family="monospace" font-size="10px" text-anchor="start" x="3" xml:space="preserve" y="130">
.outputs@
<title>top.outputs@</title>
</text>
<path d="M 90 130 L 90 137 L 190 137 L 190 130" fill="none" stroke="#D62246" stroke-width="1"/>
<rect fill="#470B17" height="14" stroke="none" width="198" x="191" y="123"/>
<path d="M 190 130 L 190 123 L 390 123 L 390 130" fill="none" stroke="#D62246" stroke-width="1"/>
<path d="M 390 130 L 390 137 L 490 137 L 490 130" fill="none" stroke="#D62246" stroke-width="1"/>
</svg>