<svg viewBox="-32 0 2992 736" xmlns="http://www.w3.org/2000/svg">
<rect fill="#EEEEEE" height="736" stroke="darkblue" width="2928" x="0" y="0"/>
<rect fill="#EEEEEE" height="16" stroke="darkblue" width="32" x="-32" y="0"/>
<text dominant-baseline="middle" font-family="monospace" font-size="10px" text-anchor="middle" x="-16" y="8">
0
</text>
<rect fill="#EEEEEE" height="16" stroke="darkblue" width="32" x="2928" y="0"/>
<text dominant-baseline="middle" font-family="monospace" font-size="10px" text-anchor="middle" x="2944" y="8">
0
</text>
<line stroke="#DFDFDF" stroke-dasharray="1,1" stroke-width="1" x1="0" x2="2928" y1="0" y2="0"/>
<rect fill="#EEEEEE" height="16" stroke="darkblue" width="32" x="-32" y="16"/>
<text dominant-baseline="middle" font-family="monospace" font-size="10px" text-anchor="middle" x="-16" y="24">
1
</text>
<rect fill="#EEEEEE" height="16" stroke="darkblue" width="32" x="2928" y="16"/>
<text dominant-baseline="middle" font-family="monospace" font-size="10px" text-anchor="middle" x="2944" y="24">
1
</text>
<line stroke="#DFDFDF" stroke-dasharray="1,1" stroke-width="1" x1="0" x2="2928" y1="16" y2="16"/>
<rect fill="#EEEEEE" height="16" stroke="darkblue" width="32" x="-32" y="32"/>
<text dominant-baseline="middle" font-family="monospace" font-size="10px" text-anchor="middle" x="-16" y="40">
2
</text>
<rect fill="#EEEEEE" height="16" stroke="darkblue" width="32" x="2928" y="32"/>
<text dominant-baseline="middle" font-family="monospace" font-size="10px" text-anchor="middle" x="2944" y="40">
2
</text>
<line stroke="#DFDFDF" stroke-dasharray="1,1" stroke-width="1" x1="0" x2="2928" y1="32" y2="32"/>
<rect fill="#EEEEEE" height="16" stroke="darkblue" width="32" x="-32" y="48"/>
<text dominant-baseline="middle" font-family="monospace" font-size="10px" text-anchor="middle" x="-16" y="56">
3
</text>
<rect fill="#EEEEEE" height="16" stroke="darkblue" width="32" x="2928" y="48"/>
<text dominant-baseline="middle" font-family="monospace" font-size="10px" text-anchor="middle" x="2944" y="56">
3
</text>
<line stroke="#DFDFDF" stroke-dasharray="1,1" stroke-width="1" x1="0" x2="2928" y1="48" y2="48"/>
<rect fill="#EEEEEE" height="16" stroke="darkblue" width="32" x="-32" y="64"/>
<text dominant-baseline="middle" font-family="monospace" font-size="10px" text-anchor="middle" x="-16" y="72">
4
</text>
<rect fill="#EEEEEE" height="16" stroke="darkblue" width="32" x="2928" y="64"/>
<text dominant-baseline="middle" font-family="monospace" font-size="10px" text-anchor="middle" x="2944" y="72">
4
</text>
<line stroke="#DFDFDF" stroke-dasharray="1,1" stroke-width="1" x1="0" x2="2928" y1="64" y2="64"/>
<rect fill="#EEEEEE" height="16" stroke="darkblue" width="32" x="-32" y="80"/>
<text dominant-baseline="middle" font-family="monospace" font-size="10px" text-anchor="middle" x="-16" y="88">
5
</text>
<rect fill="#EEEEEE" height="16" stroke="darkblue" width="32" x="2928" y="80"/>
<text dominant-baseline="middle" font-family="monospace" font-size="10px" text-anchor="middle" x="2944" y="88">
5
</text>
<line stroke="#DFDFDF" stroke-dasharray="1,1" stroke-width="1" x1="0" x2="2928" y1="80" y2="80"/>
<rect fill="#EEEEEE" height="16" stroke="darkblue" width="32" x="-32" y="96"/>
<text dominant-baseline="middle" font-family="monospace" font-size="10px" text-anchor="middle" x="-16" y="104">
6
</text>
<rect fill="#EEEEEE" height="16" stroke="darkblue" width="32" x="2928" y="96"/>
<text dominant-baseline="middle" font-family="monospace" font-size="10px" text-anchor="middle" x="2944" y="104">
6
</text>
<line stroke="#DFDFDF" stroke-dasharray="1,1" stroke-width="1" x1="0" x2="2928" y1="96" y2="96"/>
<rect fill="#EEEEEE" height="16" stroke="darkblue" width="32" x="-32" y="112"/>
<text dominant-baseline="middle" font-family="monospace" font-size="10px" text-anchor="middle" x="-16" y="120">
7
</text>
<rect fill="#EEEEEE" height="16" stroke="darkblue" width="32" x="2928" y="112"/>
<text dominant-baseline="middle" font-family="monospace" font-size="10px" text-anchor="middle" x="2944" y="120">
7
</text>
<line stroke="#DFDFDF" stroke-dasharray="1,1" stroke-width="1" x1="0" x2="2928" y1="112" y2="112"/>
<rect fill="#EEEEEE" height="16" stroke="darkblue" width="32" x="-32" y="128"/>
<text dominant-baseline="middle" font-family="monospace" font-size="10px" text-anchor="middle" x="-16" y="136">
8
</text>
<rect fill="#EEEEEE" height="16" stroke="darkblue" width="32" x="2928" y="128"/>
<text dominant-baseline="middle" font-family="monospace" font-size="10px" text-anchor="middle" x="2944" y="136">
8
</text>
<line stroke="#DFDFDF" stroke-dasharray="1,1" stroke-width="1" x1="0" x2="2928" y1="128" y2="128"/>
<rect fill="#EEEEEE" height="16" stroke="darkblue" width="32" x="-32" y="144"/>
<text dominant-baseline="middle" font-family="monospace" font-size="10px" text-anchor="middle" x="-16" y="152">
9
</text>
<rect fill="#EEEEEE" height="16" stroke="darkblue" width="32" x="2928" y="144"/>
<text dominant-baseline="middle" font-family="monospace" font-size="10px" text-anchor="middle" x="2944" y="152">
9
</text>
<line stroke="#DFDFDF" stroke-dasharray="1,1" stroke-width="1" x1="0" x2="2928" y1="144" y2="144"/>
<rect fill="#EEEEEE" height="16" stroke="darkblue" width="32" x="-32" y="160"/>
<text dominant-baseline="middle" font-family="monospace" font-size="10px" text-anchor="middle" x="-16" y="168">
10
</text>
<rect fill="#EEEEEE" height="16" stroke="darkblue" width="32" x="2928" y="160"/>
<text dominant-baseline="middle" font-family="monospace" font-size="10px" text-anchor="middle" x="2944" y="168">
10
</text>
<line stroke="#DFDFDF" stroke-dasharray="1,1" stroke-width="1" x1="0" x2="2928" y1="160" y2="160"/>
<rect fill="#EEEEEE" height="16" stroke="darkblue" width="32" x="-32" y="176"/>
<text dominant-baseline="middle" font-family="monospace" font-size="10px" text-anchor="middle" x="-16" y="184">
11
</text>
<rect fill="#EEEEEE" height="16" stroke="darkblue" width="32" x="2928" y="176"/>
<text dominant-baseline="middle" font-family="monospace" font-size="10px" text-anchor="middle" x="2944" y="184">
11
</text>
<line stroke="#DFDFDF" stroke-dasharray="1,1" stroke-width="1" x1="0" x2="2928" y1="176" y2="176"/>
<rect fill="#EEEEEE" height="16" stroke="darkblue" width="32" x="-32" y="192"/>
<text dominant-baseline="middle" font-family="monospace" font-size="10px" text-anchor="middle" x="-16" y="200">
12
</text>
<rect fill="#EEEEEE" height="16" stroke="darkblue" width="32" x="2928" y="192"/>
<text dominant-baseline="middle" font-family="monospace" font-size="10px" text-anchor="middle" x="2944" y="200">
12
</text>
<line stroke="#DFDFDF" stroke-dasharray="1,1" stroke-width="1" x1="0" x2="2928" y1="192" y2="192"/>
<rect fill="#EEEEEE" height="16" stroke="darkblue" width="32" x="-32" y="208"/>
<text dominant-baseline="middle" font-family="monospace" font-size="10px" text-anchor="middle" x="-16" y="216">
13
</text>
<rect fill="#EEEEEE" height="16" stroke="darkblue" width="32" x="2928" y="208"/>
<text dominant-baseline="middle" font-family="monospace" font-size="10px" text-anchor="middle" x="2944" y="216">
13
</text>
<line stroke="#DFDFDF" stroke-dasharray="1,1" stroke-width="1" x1="0" x2="2928" y1="208" y2="208"/>
<rect fill="#EEEEEE" height="16" stroke="darkblue" width="32" x="-32" y="224"/>
<text dominant-baseline="middle" font-family="monospace" font-size="10px" text-anchor="middle" x="-16" y="232">
14
</text>
<rect fill="#EEEEEE" height="16" stroke="darkblue" width="32" x="2928" y="224"/>
<text dominant-baseline="middle" font-family="monospace" font-size="10px" text-anchor="middle" x="2944" y="232">
14
</text>
<line stroke="#DFDFDF" stroke-dasharray="1,1" stroke-width="1" x1="0" x2="2928" y1="224" y2="224"/>
<rect fill="#EEEEEE" height="16" stroke="darkblue" width="32" x="-32" y="240"/>
<text dominant-baseline="middle" font-family="monospace" font-size="10px" text-anchor="middle" x="-16" y="248">
15
</text>
<rect fill="#EEEEEE" height="16" stroke="darkblue" width="32" x="2928" y="240"/>
<text dominant-baseline="middle" font-family="monospace" font-size="10px" text-anchor="middle" x="2944" y="248">
15
</text>
<line stroke="#DFDFDF" stroke-dasharray="1,1" stroke-width="1" x1="0" x2="2928" y1="240" y2="240"/>
<rect fill="#EEEEEE" height="16" stroke="darkblue" width="32" x="-32" y="256"/>
<text dominant-baseline="middle" font-family="monospace" font-size="10px" text-anchor="middle" x="-16" y="264">
16
</text>
<rect fill="#EEEEEE" height="16" stroke="darkblue" width="32" x="2928" y="256"/>
<text dominant-baseline="middle" font-family="monospace" font-size="10px" text-anchor="middle" x="2944" y="264">
16
</text>
<line stroke="#DFDFDF" stroke-dasharray="1,1" stroke-width="1" x1="0" x2="2928" y1="256" y2="256"/>
<rect fill="#EEEEEE" height="16" stroke="darkblue" width="32" x="-32" y="272"/>
<text dominant-baseline="middle" font-family="monospace" font-size="10px" text-anchor="middle" x="-16" y="280">
17
</text>
<rect fill="#EEEEEE" height="16" stroke="darkblue" width="32" x="2928" y="272"/>
<text dominant-baseline="middle" font-family="monospace" font-size="10px" text-anchor="middle" x="2944" y="280">
17
</text>
<line stroke="#DFDFDF" stroke-dasharray="1,1" stroke-width="1" x1="0" x2="2928" y1="272" y2="272"/>
<rect fill="#EEEEEE" height="16" stroke="darkblue" width="32" x="-32" y="288"/>
<text dominant-baseline="middle" font-family="monospace" font-size="10px" text-anchor="middle" x="-16" y="296">
18
</text>
<rect fill="#EEEEEE" height="16" stroke="darkblue" width="32" x="2928" y="288"/>
<text dominant-baseline="middle" font-family="monospace" font-size="10px" text-anchor="middle" x="2944" y="296">
18
</text>
<line stroke="#DFDFDF" stroke-dasharray="1,1" stroke-width="1" x1="0" x2="2928" y1="288" y2="288"/>
<rect fill="#EEEEEE" height="16" stroke="darkblue" width="32" x="-32" y="304"/>
<text dominant-baseline="middle" font-family="monospace" font-size="10px" text-anchor="middle" x="-16" y="312">
19
</text>
<rect fill="#EEEEEE" height="16" stroke="darkblue" width="32" x="2928" y="304"/>
<text dominant-baseline="middle" font-family="monospace" font-size="10px" text-anchor="middle" x="2944" y="312">
19
</text>
<line stroke="#DFDFDF" stroke-dasharray="1,1" stroke-width="1" x1="0" x2="2928" y1="304" y2="304"/>
<rect fill="#EEEEEE" height="16" stroke="darkblue" width="32" x="-32" y="320"/>
<text dominant-baseline="middle" font-family="monospace" font-size="10px" text-anchor="middle" x="-16" y="328">
20
</text>
<rect fill="#EEEEEE" height="16" stroke="darkblue" width="32" x="2928" y="320"/>
<text dominant-baseline="middle" font-family="monospace" font-size="10px" text-anchor="middle" x="2944" y="328">
20
</text>
<line stroke="#DFDFDF" stroke-dasharray="1,1" stroke-width="1" x1="0" x2="2928" y1="320" y2="320"/>
<rect fill="#EEEEEE" height="16" stroke="darkblue" width="32" x="-32" y="336"/>
<text dominant-baseline="middle" font-family="monospace" font-size="10px" text-anchor="middle" x="-16" y="344">
21
</text>
<rect fill="#EEEEEE" height="16" stroke="darkblue" width="32" x="2928" y="336"/>
<text dominant-baseline="middle" font-family="monospace" font-size="10px" text-anchor="middle" x="2944" y="344">
21
</text>
<line stroke="#DFDFDF" stroke-dasharray="1,1" stroke-width="1" x1="0" x2="2928" y1="336" y2="336"/>
<rect fill="#EEEEEE" height="16" stroke="darkblue" width="32" x="-32" y="352"/>
<text dominant-baseline="middle" font-family="monospace" font-size="10px" text-anchor="middle" x="-16" y="360">
22
</text>
<rect fill="#EEEEEE" height="16" stroke="darkblue" width="32" x="2928" y="352"/>
<text dominant-baseline="middle" font-family="monospace" font-size="10px" text-anchor="middle" x="2944" y="360">
22
</text>
<line stroke="#DFDFDF" stroke-dasharray="1,1" stroke-width="1" x1="0" x2="2928" y1="352" y2="352"/>
<rect fill="#EEEEEE" height="16" stroke="darkblue" width="32" x="-32" y="368"/>
<text dominant-baseline="middle" font-family="monospace" font-size="10px" text-anchor="middle" x="-16" y="376">
23
</text>
<rect fill="#EEEEEE" height="16" stroke="darkblue" width="32" x="2928" y="368"/>
<text dominant-baseline="middle" font-family="monospace" font-size="10px" text-anchor="middle" x="2944" y="376">
23
</text>
<line stroke="#DFDFDF" stroke-dasharray="1,1" stroke-width="1" x1="0" x2="2928" y1="368" y2="368"/>
<rect fill="#EEEEEE" height="16" stroke="darkblue" width="32" x="-32" y="384"/>
<text dominant-baseline="middle" font-family="monospace" font-size="10px" text-anchor="middle" x="-16" y="392">
24
</text>
<rect fill="#EEEEEE" height="16" stroke="darkblue" width="32" x="2928" y="384"/>
<text dominant-baseline="middle" font-family="monospace" font-size="10px" text-anchor="middle" x="2944" y="392">
24
</text>
<line stroke="#DFDFDF" stroke-dasharray="1,1" stroke-width="1" x1="0" x2="2928" y1="384" y2="384"/>
<rect fill="#EEEEEE" height="16" stroke="darkblue" width="32" x="-32" y="400"/>
<text dominant-baseline="middle" font-family="monospace" font-size="10px" text-anchor="middle" x="-16" y="408">
25
</text>
<rect fill="#EEEEEE" height="16" stroke="darkblue" width="32" x="2928" y="400"/>
<text dominant-baseline="middle" font-family="monospace" font-size="10px" text-anchor="middle" x="2944" y="408">
25
</text>
<line stroke="#DFDFDF" stroke-dasharray="1,1" stroke-width="1" x1="0" x2="2928" y1="400" y2="400"/>
<rect fill="#EEEEEE" height="16" stroke="darkblue" width="32" x="-32" y="416"/>
<text dominant-baseline="middle" font-family="monospace" font-size="10px" text-anchor="middle" x="-16" y="424">
26
</text>
<rect fill="#EEEEEE" height="16" stroke="darkblue" width="32" x="2928" y="416"/>
<text dominant-baseline="middle" font-family="monospace" font-size="10px" text-anchor="middle" x="2944" y="424">
26
</text>
<line stroke="#DFDFDF" stroke-dasharray="1,1" stroke-width="1" x1="0" x2="2928" y1="416" y2="416"/>
<rect fill="#EEEEEE" height="16" stroke="darkblue" width="32" x="-32" y="432"/>
<text dominant-baseline="middle" font-family="monospace" font-size="10px" text-anchor="middle" x="-16" y="440">
27
</text>
<rect fill="#EEEEEE" height="16" stroke="darkblue" width="32" x="2928" y="432"/>
<text dominant-baseline="middle" font-family="monospace" font-size="10px" text-anchor="middle" x="2944" y="440">
27
</text>
<line stroke="#DFDFDF" stroke-dasharray="1,1" stroke-width="1" x1="0" x2="2928" y1="432" y2="432"/>
<rect fill="#EEEEEE" height="16" stroke="darkblue" width="32" x="-32" y="448"/>
<text dominant-baseline="middle" font-family="monospace" font-size="10px" text-anchor="middle" x="-16" y="456">
28
</text>
<rect fill="#EEEEEE" height="16" stroke="darkblue" width="32" x="2928" y="448"/>
<text dominant-baseline="middle" font-family="monospace" font-size="10px" text-anchor="middle" x="2944" y="456">
28
</text>
<line stroke="#DFDFDF" stroke-dasharray="1,1" stroke-width="1" x1="0" x2="2928" y1="448" y2="448"/>
<rect fill="#EEEEEE" height="16" stroke="darkblue" width="32" x="-32" y="464"/>
<text dominant-baseline="middle" font-family="monospace" font-size="10px" text-anchor="middle" x="-16" y="472">
29
</text>
<rect fill="#EEEEEE" height="16" stroke="darkblue" width="32" x="2928" y="464"/>
<text dominant-baseline="middle" font-family="monospace" font-size="10px" text-anchor="middle" x="2944" y="472">
29
</text>
<line stroke="#DFDFDF" stroke-dasharray="1,1" stroke-width="1" x1="0" x2="2928" y1="464" y2="464"/>
<rect fill="#EEEEEE" height="16" stroke="darkblue" width="32" x="-32" y="480"/>
<text dominant-baseline="middle" font-family="monospace" font-size="10px" text-anchor="middle" x="-16" y="488">
30
</text>
<rect fill="#EEEEEE" height="16" stroke="darkblue" width="32" x="2928" y="480"/>
<text dominant-baseline="middle" font-family="monospace" font-size="10px" text-anchor="middle" x="2944" y="488">
30
</text>
<line stroke="#DFDFDF" stroke-dasharray="1,1" stroke-width="1" x1="0" x2="2928" y1="480" y2="480"/>
<rect fill="#EEEEEE" height="16" stroke="darkblue" width="32" x="-32" y="496"/>
<text dominant-baseline="middle" font-family="monospace" font-size="10px" text-anchor="middle" x="-16" y="504">
31
</text>
<rect fill="#EEEEEE" height="16" stroke="darkblue" width="32" x="2928" y="496"/>
<text dominant-baseline="middle" font-family="monospace" font-size="10px" text-anchor="middle" x="2944" y="504">
31
</text>
<line stroke="#DFDFDF" stroke-dasharray="1,1" stroke-width="1" x1="0" x2="2928" y1="496" y2="496"/>
<rect fill="#EEEEEE" height="16" stroke="darkblue" width="32" x="-32" y="512"/>
<text dominant-baseline="middle" font-family="monospace" font-size="10px" text-anchor="middle" x="-16" y="520">
32
</text>
<rect fill="#EEEEEE" height="16" stroke="darkblue" width="32" x="2928" y="512"/>
<text dominant-baseline="middle" font-family="monospace" font-size="10px" text-anchor="middle" x="2944" y="520">
32
</text>
<line stroke="#DFDFDF" stroke-dasharray="1,1" stroke-width="1" x1="0" x2="2928" y1="512" y2="512"/>
<rect fill="#EEEEEE" height="16" stroke="darkblue" width="32" x="-32" y="528"/>
<text dominant-baseline="middle" font-family="monospace" font-size="10px" text-anchor="middle" x="-16" y="536">
33
</text>
<rect fill="#EEEEEE" height="16" stroke="darkblue" width="32" x="2928" y="528"/>
<text dominant-baseline="middle" font-family="monospace" font-size="10px" text-anchor="middle" x="2944" y="536">
33
</text>
<line stroke="#DFDFDF" stroke-dasharray="1,1" stroke-width="1" x1="0" x2="2928" y1="528" y2="528"/>
<rect fill="#EEEEEE" height="16" stroke="darkblue" width="32" x="-32" y="544"/>
<text dominant-baseline="middle" font-family="monospace" font-size="10px" text-anchor="middle" x="-16" y="552">
34
</text>
<rect fill="#EEEEEE" height="16" stroke="darkblue" width="32" x="2928" y="544"/>
<text dominant-baseline="middle" font-family="monospace" font-size="10px" text-anchor="middle" x="2944" y="552">
34
</text>
<line stroke="#DFDFDF" stroke-dasharray="1,1" stroke-width="1" x1="0" x2="2928" y1="544" y2="544"/>
<rect fill="#EEEEEE" height="16" stroke="darkblue" width="32" x="-32" y="560"/>
<text dominant-baseline="middle" font-family="monospace" font-size="10px" text-anchor="middle" x="-16" y="568">
35
</text>
<rect fill="#EEEEEE" height="16" stroke="darkblue" width="32" x="2928" y="560"/>
<text dominant-baseline="middle" font-family="monospace" font-size="10px" text-anchor="middle" x="2944" y="568">
35
</text>
<line stroke="#DFDFDF" stroke-dasharray="1,1" stroke-width="1" x1="0" x2="2928" y1="560" y2="560"/>
<rect fill="#EEEEEE" height="16" stroke="darkblue" width="32" x="-32" y="576"/>
<text dominant-baseline="middle" font-family="monospace" font-size="10px" text-anchor="middle" x="-16" y="584">
36
</text>
<rect fill="#EEEEEE" height="16" stroke="darkblue" width="32" x="2928" y="576"/>
<text dominant-baseline="middle" font-family="monospace" font-size="10px" text-anchor="middle" x="2944" y="584">
36
</text>
<line stroke="#DFDFDF" stroke-dasharray="1,1" stroke-width="1" x1="0" x2="2928" y1="576" y2="576"/>
<rect fill="#EEEEEE" height="16" stroke="darkblue" width="32" x="-32" y="592"/>
<text dominant-baseline="middle" font-family="monospace" font-size="10px" text-anchor="middle" x="-16" y="600">
37
</text>
<rect fill="#EEEEEE" height="16" stroke="darkblue" width="32" x="2928" y="592"/>
<text dominant-baseline="middle" font-family="monospace" font-size="10px" text-anchor="middle" x="2944" y="600">
37
</text>
<line stroke="#DFDFDF" stroke-dasharray="1,1" stroke-width="1" x1="0" x2="2928" y1="592" y2="592"/>
<rect fill="#EEEEEE" height="16" stroke="darkblue" width="32" x="-32" y="608"/>
<text dominant-baseline="middle" font-family="monospace" font-size="10px" text-anchor="middle" x="-16" y="616">
38
</text>
<rect fill="#EEEEEE" height="16" stroke="darkblue" width="32" x="2928" y="608"/>
<text dominant-baseline="middle" font-family="monospace" font-size="10px" text-anchor="middle" x="2944" y="616">
38
</text>
<line stroke="#DFDFDF" stroke-dasharray="1,1" stroke-width="1" x1="0" x2="2928" y1="608" y2="608"/>
<rect fill="#EEEEEE" height="16" stroke="darkblue" width="32" x="-32" y="624"/>
<text dominant-baseline="middle" font-family="monospace" font-size="10px" text-anchor="middle" x="-16" y="632">
39
</text>
<rect fill="#EEEEEE" height="16" stroke="darkblue" width="32" x="2928" y="624"/>
<text dominant-baseline="middle" font-family="monospace" font-size="10px" text-anchor="middle" x="2944" y="632">
39
</text>
<line stroke="#DFDFDF" stroke-dasharray="1,1" stroke-width="1" x1="0" x2="2928" y1="624" y2="624"/>
<rect fill="#EEEEEE" height="16" stroke="darkblue" width="32" x="-32" y="640"/>
<text dominant-baseline="middle" font-family="monospace" font-size="10px" text-anchor="middle" x="-16" y="648">
40
</text>
<rect fill="#EEEEEE" height="16" stroke="darkblue" width="32" x="2928" y="640"/>
<text dominant-baseline="middle" font-family="monospace" font-size="10px" text-anchor="middle" x="2944" y="648">
40
</text>
<line stroke="#DFDFDF" stroke-dasharray="1,1" stroke-width="1" x1="0" x2="2928" y1="640" y2="640"/>
<rect fill="#EEEEEE" height="16" stroke="darkblue" width="32" x="-32" y="656"/>
<text dominant-baseline="middle" font-family="monospace" font-size="10px" text-anchor="middle" x="-16" y="664">
41
</text>
<rect fill="#EEEEEE" height="16" stroke="darkblue" width="32" x="2928" y="656"/>
<text dominant-baseline="middle" font-family="monospace" font-size="10px" text-anchor="middle" x="2944" y="664">
41
</text>
<line stroke="#DFDFDF" stroke-dasharray="1,1" stroke-width="1" x1="0" x2="2928" y1="656" y2="656"/>
<rect fill="#EEEEEE" height="16" stroke="darkblue" width="32" x="-32" y="672"/>
<text dominant-baseline="middle" font-family="monospace" font-size="10px" text-anchor="middle" x="-16" y="680">
42
</text>
<rect fill="#EEEEEE" height="16" stroke="darkblue" width="32" x="2928" y="672"/>
<text dominant-baseline="middle" font-family="monospace" font-size="10px" text-anchor="middle" x="2944" y="680">
42
</text>
<line stroke="#DFDFDF" stroke-dasharray="1,1" stroke-width="1" x1="0" x2="2928" y1="672" y2="672"/>
<rect fill="#EEEEEE" height="16" stroke="darkblue" width="32" x="-32" y="688"/>
<text dominant-baseline="middle" font-family="monospace" font-size="10px" text-anchor="middle" x="-16" y="696">
43
</text>
<rect fill="#EEEEEE" height="16" stroke="darkblue" width="32" x="2928" y="688"/>
<text dominant-baseline="middle" font-family="monospace" font-size="10px" text-anchor="middle" x="2944" y="696">
43
</text>
<line stroke="#DFDFDF" stroke-dasharray="1,1" stroke-width="1" x1="0" x2="2928" y1="688" y2="688"/>
<rect fill="#EEEEEE" height="16" stroke="darkblue" width="32" x="-32" y="704"/>
<text dominant-baseline="middle" font-family="monospace" font-size="10px" text-anchor="middle" x="-16" y="712">
44
</text>
<rect fill="#EEEEEE" height="16" stroke="darkblue" width="32" x="2928" y="704"/>
<text dominant-baseline="middle" font-family="monospace" font-size="10px" text-anchor="middle" x="2944" y="712">
44
</text>
<line stroke="#DFDFDF" stroke-dasharray="1,1" stroke-width="1" x1="0" x2="2928" y1="704" y2="704"/>
<rect fill="#EEEEEE" height="16" stroke="darkblue" width="32" x="-32" y="720"/>
<text dominant-baseline="middle" font-family="monospace" font-size="10px" text-anchor="middle" x="-16" y="728">
45
</text>
<rect fill="#EEEEEE" height="16" stroke="darkblue" width="32" x="2928" y="720"/>
<text dominant-baseline="middle" font-family="monospace" font-size="10px" text-anchor="middle" x="2944" y="728">
45
</text>
<line stroke="#DFDFDF" stroke-dasharray="1,1" stroke-width="1" x1="0" x2="2928" y1="720" y2="720"/>
<rect fill="#99FFCC" height="736" stroke="gray" width="160" x="0" y="0"/>
<text dominant-baseline="middle" font-family="monospace" font-size="10px" text-anchor="middle" x="80" y="368">
Packet|46|
</text>
<rect fill="#CCCC99" height="80" stroke="gray" width="272" x="160" y="656"/>
<text dominant-baseline="middle" font-family="monospace" font-size="10px" text-anchor="middle" x="296" y="696">
Color(00001)
</text>
<rect fill="#CCCCCC" height="384" stroke="gray" width="192" x="160" y="0"/>
<text dominant-baseline="middle" font-family="monospace" font-size="10px" text-anchor="middle" x="256" y="192">
{Color}
</text>
<rect fill="#CCCCFF" height="128" stroke="gray" width="80" x="352" y="0"/>
<text dominant-baseline="middle" font-family="monospace" font-size="10px" text-anchor="middle" x="392" y="64">
.r b8
</text>
<rect fill="#CCFF99" height="128" stroke="gray" width="80" x="352" y="128"/>
<text dominant-baseline="middle" font-family="monospace" font-size="10px" text-anchor="middle" x="392" y="192">
.g b8
</text>
<rect fill="#CCFFCC" height="128" stroke="gray" width="80" x="352" y="256"/>
<text dominant-baseline="middle" font-family="monospace" font-size="10px" text-anchor="middle" x="392" y="320">
.b b8
</text>
<rect fill="#CCFFFF" height="80" stroke="gray" width="272" x="432" y="656"/>
<text dominant-baseline="middle" font-family="monospace" font-size="10px" text-anchor="middle" x="568" y="696">
Size(00010)
</text>
<rect fill="#FFCC99" height="512" stroke="gray" width="176" x="432" y="0"/>
<text dominant-baseline="middle" font-family="monospace" font-size="10px" text-anchor="middle" x="520" y="256">
{Size}
</text>
<rect fill="#FFCCCC" height="256" stroke="gray" width="96" x="608" y="0"/>
<text dominant-baseline="middle" font-family="monospace" font-size="10px" text-anchor="middle" x="656" y="128">
.w b16
</text>
<rect fill="#FFCCFF" height="256" stroke="gray" width="96" x="608" y="256"/>
<text dominant-baseline="middle" font-family="monospace" font-size="10px" text-anchor="middle" x="656" y="384">
.h b16
</text>
<rect fill="#FFFF99" height="80" stroke="gray" width="320" x="704" y="656"/>
<text dominant-baseline="middle" font-family="monospace" font-size="10px" text-anchor="middle" x="864" y="696">
Position(00100)
</text>
<rect fill="#FFFFCC" height="128" stroke="gray" width="240" x="704" y="0"/>
<text dominant-baseline="middle" font-family="monospace" font-size="10px" text-anchor="middle" x="824" y="64">
(Position)
</text>
<rect fill="#99FFCC" height="64" stroke="gray" width="80" x="944" y="0"/>
<text dominant-baseline="middle" font-family="monospace" font-size="10px" text-anchor="middle" x="984" y="32">
.0 b4
</text>
<rect fill="#CCCC99" height="64" stroke="gray" width="80" x="944" y="64"/>
<text dominant-baseline="middle" font-family="monospace" font-size="10px" text-anchor="middle" x="984" y="96">
.1 b4
</text>
<rect fill="#CCCCCC" height="80" stroke="gray" width="1232" x="1024" y="656"/>
<text dominant-baseline="middle" font-family="monospace" font-size="10px" text-anchor="middle" x="1640" y="696">
State(01000)
</text>
<rect fill="#CCCCFF" height="48" stroke="gray" width="192" x="1024" y="0"/>
<text dominant-baseline="middle" font-family="monospace" font-size="10px" text-anchor="middle" x="1120" y="24">
(State)
</text>
<rect fill="#CCFF99" height="48" stroke="gray" width="80" x="1216" y="0"/>
<text dominant-baseline="middle" font-family="monospace" font-size="10px" text-anchor="middle" x="1256" y="24">
.0|3|
</text>
<rect fill="#CCFFCC" height="48" stroke="gray" width="144" x="1296" y="0"/>
<text dominant-baseline="middle" font-family="monospace" font-size="10px" text-anchor="middle" x="1368" y="24">
Init(110)
</text>
<rect fill="#CCFFFF" height="48" stroke="gray" width="144" x="1440" y="0"/>
<text dominant-baseline="middle" font-family="monospace" font-size="10px" text-anchor="middle" x="1512" y="24">
Boot(111)
</text>
<rect fill="#FFCC99" height="48" stroke="gray" width="192" x="1584" y="0"/>
<text dominant-baseline="middle" font-family="monospace" font-size="10px" text-anchor="middle" x="1680" y="24">
Running(000)
</text>
<rect fill="#FFCCCC" height="48" stroke="gray" width="144" x="1776" y="0"/>
<text dominant-baseline="middle" font-family="monospace" font-size="10px" text-anchor="middle" x="1848" y="24">
Stop(001)
</text>
<rect fill="#FFCCFF" height="48" stroke="gray" width="144" x="1920" y="0"/>
<text dominant-baseline="middle" font-family="monospace" font-size="10px" text-anchor="middle" x="1992" y="24">
Boom(010)
</text>
<rect fill="#FFFF99" height="48" stroke="gray" width="192" x="2064" y="0"/>
<text dominant-baseline="middle" font-family="monospace" font-size="10px" text-anchor="middle" x="2160" y="24">
Invalid(011)
</text>
<rect fill="#FFFFCC" height="80" stroke="gray" width="448" x="2256" y="656"/>
<text dominant-baseline="middle" font-family="monospace" font-size="10px" text-anchor="middle" x="2480" y="696">
Log(10000)
</text>
<rect fill="#99FFCC" height="656" stroke="gray" width="160" x="2256" y="0"/>
<text dominant-baseline="middle" font-family="monospace" font-size="10px" text-anchor="middle" x="2336" y="328">
{Log}
</text>
<rect fill="#CCCC99" height="512" stroke="gray" width="128" x="2416" y="0"/>
<text dominant-baseline="middle" font-family="monospace" font-size="10px" text-anchor="middle" x="2480" y="256">
.msg b32
</text>
<rect fill="#CCCCCC" height="144" stroke="gray" width="128" x="2416" y="512"/>
<text dominant-baseline="middle" font-family="monospace" font-size="10px" text-anchor="middle" x="2480" y="584">
{.level}
</text>
<rect fill="#CCCCFF" height="128" stroke="gray" width="160" x="2544" y="512"/>
<text dominant-baseline="middle" font-family="monospace" font-size="10px" text-anchor="middle" x="2624" y="576">
.level b8
</text>
<rect fill="#CCFF99" height="16" stroke="gray" width="160" x="2544" y="640"/>
<text dominant-baseline="middle" font-family="monospace" font-size="10px" text-anchor="middle" x="2624" y="648">
.active b1
</text>
<rect fill="#CCFFCC" height="80" stroke="gray" width="224" x="2704" y="656"/>
<text dominant-baseline="middle" font-family="monospace" font-size="10px" text-anchor="middle" x="2816" y="696">
Invalid(10001)
</text>
</svg>