<svg viewBox="0 0 800 160" xmlns="http://www.w3.org/2000/svg">
<defs>
<clipPath id="clip">
<rect height="160" width="800" x="0" y="0"/>
</clipPath>
</defs>
<rect fill="#0B151D" height="160" stroke="darkblue" width="800" x="0" y="0"/>
<line stroke="#333333" stroke-width="1" x1="200" x2="200" y1="0" y2="160"/>
<text clip-path="url(#clip)" dominant-baseline="middle" fill="#D4D4D4" font-family="monospace" font-size="10px" text-anchor="middle" x="200" y="10">
0
</text>
<line stroke="#333333" stroke-width="1" x1="300" x2="300" y1="0" y2="160"/>
<text clip-path="url(#clip)" dominant-baseline="middle" fill="#D4D4D4" font-family="monospace" font-size="10px" text-anchor="middle" x="300" y="10">
100
</text>
<line stroke="#333333" stroke-width="1" x1="400" x2="400" y1="0" y2="160"/>
<text clip-path="url(#clip)" dominant-baseline="middle" fill="#D4D4D4" font-family="monospace" font-size="10px" text-anchor="middle" x="400" y="10">
200
</text>
<line stroke="#333333" stroke-width="1" x1="500" x2="500" y1="0" y2="160"/>
<text clip-path="url(#clip)" dominant-baseline="middle" fill="#D4D4D4" font-family="monospace" font-size="10px" text-anchor="middle" x="500" y="10">
300
</text>
<line stroke="#333333" stroke-width="1" x1="600" x2="600" y1="0" y2="160"/>
<text clip-path="url(#clip)" dominant-baseline="middle" fill="#D4D4D4" font-family="monospace" font-size="10px" text-anchor="middle" x="600" y="10">
400
</text>
<line stroke="#333333" stroke-width="1" x1="700" x2="700" y1="0" y2="160"/>
<text clip-path="url(#clip)" dominant-baseline="middle" fill="#D4D4D4" font-family="monospace" font-size="10px" text-anchor="middle" x="700" y="10">
500
</text>
<line stroke="#333333" stroke-width="1" x1="800" x2="800" y1="0" y2="160"/>
<text clip-path="url(#clip)" dominant-baseline="middle" fill="#D4D4D4" font-family="monospace" font-size="10px" text-anchor="middle" x="800" y="10">
600
</text>
<text dominant-baseline="middle" fill="#D4D4D4" font-family="monospace" font-size="10px" text-anchor="start" x="3" y="10">
Time:
</text>
<text dominant-baseline="middle" fill="#D4D4D4" font-family="monospace" font-size="10px" text-anchor="start" x="3" xml:space="preserve" y="30">
.kernel_3.a
<title>top.kernel_3.a</title>
</text>
<path d="M 200 30 L 203 23 L 297 23 L 300 30 L 297 37 L 203 37 Z" fill="none" stroke="#56C126" stroke-width="1"/>
<text dominant-baseline="middle" fill="#D4D4D4" font-family="monospace" font-size="10px" text-anchor="middle" x="250" xml:space="preserve" y="30">
00
<title>00</title>
</text>
<path d="M 300 30 L 303 23 L 397 23 L 400 30 L 397 37 L 303 37 Z" fill="none" stroke="#56C126" stroke-width="1"/>
<text dominant-baseline="middle" fill="#D4D4D4" font-family="monospace" font-size="10px" text-anchor="middle" x="350" xml:space="preserve" y="30">
14
<title>14</title>
</text>
<path d="M 400 30 L 403 23 L 497 23 L 500 30 L 497 37 L 403 37 Z" fill="none" stroke="#56C126" stroke-width="1"/>
<text dominant-baseline="middle" fill="#D4D4D4" font-family="monospace" font-size="10px" text-anchor="middle" x="450" xml:space="preserve" y="30">
0f
<title>0f</title>
</text>
<path d="M 500 30 L 503 23 L 597 23 L 600 30 L 597 37 L 503 37 Z" fill="none" stroke="#56C126" stroke-width="1"/>
<text dominant-baseline="middle" fill="#D4D4D4" font-family="monospace" font-size="10px" text-anchor="middle" x="550" xml:space="preserve" y="30">
17
<title>17</title>
</text>
<path d="M 600 30 L 603 23 L 697 23 L 700 30 L 697 37 L 603 37 Z" fill="none" stroke="#56C126" stroke-width="1"/>
<text dominant-baseline="middle" fill="#D4D4D4" font-family="monospace" font-size="10px" text-anchor="middle" x="650" xml:space="preserve" y="30">
2a
<title>2a</title>
</text>
<path d="M 700 30 L 703 23 L 797 23 L 800 30 L 797 37 L 703 37 Z" fill="none" stroke="#56C126" stroke-width="1"/>
<text dominant-baseline="middle" fill="#D4D4D4" font-family="monospace" font-size="10px" text-anchor="middle" x="750" xml:space="preserve" y="30">
38
<title>38</title>
</text>
<text dominant-baseline="middle" fill="#D4D4D4" font-family="monospace" font-size="10px" text-anchor="start" x="3" xml:space="preserve" y="50">
.kernel_3.b
<title>top.kernel_3.b</title>
</text>
<path d="M 200 50 L 203 43 L 297 43 L 300 50 L 297 57 L 203 57 Z" fill="none" stroke="#56C126" stroke-width="1"/>
<text dominant-baseline="middle" fill="#D4D4D4" font-family="monospace" font-size="10px" text-anchor="middle" x="250" xml:space="preserve" y="50">
00
<title>00</title>
</text>
<path d="M 300 50 L 303 43 L 397 43 L 400 50 L 397 57 L 303 57 Z" fill="none" stroke="#56C126" stroke-width="1"/>
<text dominant-baseline="middle" fill="#D4D4D4" font-family="monospace" font-size="10px" text-anchor="middle" x="350" xml:space="preserve" y="50">
03
<title>03</title>
</text>
<path d="M 400 50 L 403 43 L 497 43 L 500 50 L 497 57 L 403 57 Z" fill="none" stroke="#56C126" stroke-width="1"/>
<text dominant-baseline="middle" fill="#D4D4D4" font-family="monospace" font-size="10px" text-anchor="middle" x="450" xml:space="preserve" y="50">
05
<title>05</title>
</text>
<path d="M 500 50 L 503 43 L 597 43 L 600 50 L 597 57 L 503 57 Z" fill="none" stroke="#56C126" stroke-width="1"/>
<text dominant-baseline="middle" fill="#D4D4D4" font-family="monospace" font-size="10px" text-anchor="middle" x="550" xml:space="preserve" y="50">
07
<title>07</title>
</text>
<path d="M 600 50 L 603 43 L 697 43 L 700 50 L 697 57 L 603 57 Z" fill="none" stroke="#56C126" stroke-width="1"/>
<text dominant-baseline="middle" fill="#D4D4D4" font-family="monospace" font-size="10px" text-anchor="middle" x="650" xml:space="preserve" y="50">
09
<title>09</title>
</text>
<path d="M 700 50 L 703 43 L 797 43 L 800 50 L 797 57 L 703 57 Z" fill="none" stroke="#56C126" stroke-width="1"/>
<text dominant-baseline="middle" fill="#D4D4D4" font-family="monospace" font-size="10px" text-anchor="middle" x="750" xml:space="preserve" y="50">
0b
<title>0b</title>
</text>
<text dominant-baseline="middle" fill="#D4D4D4" font-family="monospace" font-size="10px" text-anchor="start" x="3" xml:space="preserve" y="70">
.kernel_3.loop_index.0
<title>top.kernel_3.loop_index.0</title>
</text>
<path d="M 200 70 L 203 63 L 297 63 L 300 70 L 297 77 L 203 77 Z" fill="none" stroke="#56C126" stroke-width="1"/>
<text dominant-baseline="middle" fill="#D4D4D4" font-family="monospace" font-size="10px" text-anchor="middle" x="250" xml:space="preserve" y="70">
00
<title>00</title>
</text>
<path d="M 300 70 L 303 63 L 397 63 L 400 70 L 397 77 L 303 77 Z" fill="none" stroke="#56C126" stroke-width="1"/>
<text dominant-baseline="middle" fill="#D4D4D4" font-family="monospace" font-size="10px" text-anchor="middle" x="350" xml:space="preserve" y="70">
17
<title>17</title>
</text>
<path d="M 400 70 L 403 63 L 497 63 L 500 70 L 497 77 L 403 77 Z" fill="none" stroke="#56C126" stroke-width="1"/>
<text dominant-baseline="middle" fill="#D4D4D4" font-family="monospace" font-size="10px" text-anchor="middle" x="450" xml:space="preserve" y="70">
14
<title>14</title>
</text>
<path d="M 500 70 L 503 63 L 597 63 L 600 70 L 597 77 L 503 77 Z" fill="none" stroke="#56C126" stroke-width="1"/>
<text dominant-baseline="middle" fill="#D4D4D4" font-family="monospace" font-size="10px" text-anchor="middle" x="550" xml:space="preserve" y="70">
1e
<title>1e</title>
</text>
<path d="M 600 70 L 603 63 L 697 63 L 700 70 L 697 77 L 603 77 Z" fill="none" stroke="#56C126" stroke-width="1"/>
<text dominant-baseline="middle" fill="#D4D4D4" font-family="monospace" font-size="10px" text-anchor="middle" x="650" xml:space="preserve" y="70">
33
<title>33</title>
</text>
<path d="M 700 70 L 703 63 L 797 63 L 800 70 L 797 77 L 703 77 Z" fill="none" stroke="#56C126" stroke-width="1"/>
<text dominant-baseline="middle" fill="#D4D4D4" font-family="monospace" font-size="10px" text-anchor="middle" x="750" xml:space="preserve" y="70">
03
<title>03</title>
</text>
<text dominant-baseline="middle" fill="#D4D4D4" font-family="monospace" font-size="10px" text-anchor="start" x="3" xml:space="preserve" y="90">
.kernel_3.loop_index.1
<title>top.kernel_3.loop_index.1</title>
</text>
<path d="M 200 90 L 203 83 L 297 83 L 300 90 L 297 97 L 203 97 Z" fill="none" stroke="#56C126" stroke-width="1"/>
<text dominant-baseline="middle" fill="#D4D4D4" font-family="monospace" font-size="10px" text-anchor="middle" x="250" xml:space="preserve" y="90">
00
<title>00</title>
</text>
<path d="M 300 90 L 303 83 L 397 83 L 400 90 L 397 97 L 303 97 Z" fill="none" stroke="#56C126" stroke-width="1"/>
<text dominant-baseline="middle" fill="#D4D4D4" font-family="monospace" font-size="10px" text-anchor="middle" x="350" xml:space="preserve" y="90">
2b
<title>2b</title>
</text>
<path d="M 400 90 L 403 83 L 497 83 L 500 90 L 497 97 L 403 97 Z" fill="none" stroke="#56C126" stroke-width="1"/>
<text dominant-baseline="middle" fill="#D4D4D4" font-family="monospace" font-size="10px" text-anchor="middle" x="450" xml:space="preserve" y="90">
23
<title>23</title>
</text>
<path d="M 500 90 L 503 83 L 597 83 L 600 90 L 597 97 L 503 97 Z" fill="none" stroke="#56C126" stroke-width="1"/>
<text dominant-baseline="middle" fill="#D4D4D4" font-family="monospace" font-size="10px" text-anchor="middle" x="550" xml:space="preserve" y="90">
35
<title>35</title>
</text>
<path d="M 600 90 L 603 83 L 697 83 L 700 90 L 697 97 L 603 97 Z" fill="none" stroke="#56C126" stroke-width="1"/>
<text dominant-baseline="middle" fill="#D4D4D4" font-family="monospace" font-size="10px" text-anchor="middle" x="650" xml:space="preserve" y="90">
1d
<title>1d</title>
</text>
<path d="M 700 90 L 703 83 L 797 83 L 800 90 L 797 97 L 703 97 Z" fill="none" stroke="#56C126" stroke-width="1"/>
<text dominant-baseline="middle" fill="#D4D4D4" font-family="monospace" font-size="10px" text-anchor="middle" x="750" xml:space="preserve" y="90">
3b
<title>3b</title>
</text>
<text dominant-baseline="middle" fill="#D4D4D4" font-family="monospace" font-size="10px" text-anchor="start" x="3" xml:space="preserve" y="110">
.kernel_3.loop_index.2
<title>top.kernel_3.loop_index.2</title>
</text>
<path d="M 200 110 L 203 103 L 297 103 L 300 110 L 297 117 L 203 117 Z" fill="none" stroke="#56C126" stroke-width="1"/>
<text dominant-baseline="middle" fill="#D4D4D4" font-family="monospace" font-size="10px" text-anchor="middle" x="250" xml:space="preserve" y="110">
00
<title>00</title>
</text>
<path d="M 300 110 L 303 103 L 397 103 L 400 110 L 397 117 L 303 117 Z" fill="none" stroke="#56C126" stroke-width="1"/>
<text dominant-baseline="middle" fill="#D4D4D4" font-family="monospace" font-size="10px" text-anchor="middle" x="350" xml:space="preserve" y="110">
3f
<title>3f</title>
</text>
<path d="M 400 110 L 403 103 L 497 103 L 500 110 L 497 117 L 403 117 Z" fill="none" stroke="#56C126" stroke-width="1"/>
<text dominant-baseline="middle" fill="#D4D4D4" font-family="monospace" font-size="10px" text-anchor="middle" x="450" xml:space="preserve" y="110">
32
<title>32</title>
</text>
<path d="M 500 110 L 503 103 L 597 103 L 600 110 L 597 117 L 503 117 Z" fill="none" stroke="#56C126" stroke-width="1"/>
<text dominant-baseline="middle" fill="#D4D4D4" font-family="monospace" font-size="10px" text-anchor="middle" x="550" xml:space="preserve" y="110">
0c
<title>0c</title>
</text>
<path d="M 600 110 L 603 103 L 697 103 L 700 110 L 697 117 L 603 117 Z" fill="none" stroke="#56C126" stroke-width="1"/>
<text dominant-baseline="middle" fill="#D4D4D4" font-family="monospace" font-size="10px" text-anchor="middle" x="650" xml:space="preserve" y="110">
07
<title>07</title>
</text>
<path d="M 700 110 L 703 103 L 797 103 L 800 110 L 797 117 L 703 117 Z" fill="none" stroke="#56C126" stroke-width="1"/>
<text dominant-baseline="middle" fill="#D4D4D4" font-family="monospace" font-size="10px" text-anchor="middle" x="750" xml:space="preserve" y="110">
33
<title>33</title>
</text>
<text dominant-baseline="middle" fill="#D4D4D4" font-family="monospace" font-size="10px" text-anchor="start" x="3" xml:space="preserve" y="130">
.kernel_3.loop_index.3
<title>top.kernel_3.loop_index.3</title>
</text>
<path d="M 200 130 L 203 123 L 297 123 L 300 130 L 297 137 L 203 137 Z" fill="none" stroke="#56C126" stroke-width="1"/>
<text dominant-baseline="middle" fill="#D4D4D4" font-family="monospace" font-size="10px" text-anchor="middle" x="250" xml:space="preserve" y="130">
00
<title>00</title>
</text>
<path d="M 300 130 L 303 123 L 397 123 L 400 130 L 397 137 L 303 137 Z" fill="none" stroke="#56C126" stroke-width="1"/>
<text dominant-baseline="middle" fill="#D4D4D4" font-family="monospace" font-size="10px" text-anchor="middle" x="350" xml:space="preserve" y="130">
13
<title>13</title>
</text>
<path d="M 400 130 L 403 123 L 497 123 L 500 130 L 497 137 L 403 137 Z" fill="none" stroke="#56C126" stroke-width="1"/>
<text dominant-baseline="middle" fill="#D4D4D4" font-family="monospace" font-size="10px" text-anchor="middle" x="450" xml:space="preserve" y="130">
01
<title>01</title>
</text>
<path d="M 500 130 L 503 123 L 597 123 L 600 130 L 597 137 L 503 137 Z" fill="none" stroke="#56C126" stroke-width="1"/>
<text dominant-baseline="middle" fill="#D4D4D4" font-family="monospace" font-size="10px" text-anchor="middle" x="550" xml:space="preserve" y="130">
23
<title>23</title>
</text>
<path d="M 600 130 L 603 123 L 697 123 L 700 130 L 697 137 L 603 137 Z" fill="none" stroke="#56C126" stroke-width="1"/>
<text dominant-baseline="middle" fill="#D4D4D4" font-family="monospace" font-size="10px" text-anchor="middle" x="650" xml:space="preserve" y="130">
31
<title>31</title>
</text>
<path d="M 700 130 L 703 123 L 797 123 L 800 130 L 797 137 L 703 137 Z" fill="none" stroke="#56C126" stroke-width="1"/>
<text dominant-baseline="middle" fill="#D4D4D4" font-family="monospace" font-size="10px" text-anchor="middle" x="750" xml:space="preserve" y="130">
2b
<title>2b</title>
</text>
<text dominant-baseline="middle" fill="#D4D4D4" font-family="monospace" font-size="10px" text-anchor="start" x="3" xml:space="preserve" y="150">
.kernel_3.output
<title>top.kernel_3.output</title>
</text>
<path d="M 200 150 L 203 143 L 297 143 L 300 150 L 297 157 L 203 157 Z" fill="none" stroke="#56C126" stroke-width="1"/>
<text dominant-baseline="middle" fill="#D4D4D4" font-family="monospace" font-size="10px" text-anchor="middle" x="250" xml:space="preserve" y="150">
00
<title>00</title>
</text>
<path d="M 300 150 L 303 143 L 397 143 L 400 150 L 397 157 L 303 157 Z" fill="none" stroke="#56C126" stroke-width="1"/>
<text dominant-baseline="middle" fill="#D4D4D4" font-family="monospace" font-size="10px" text-anchor="middle" x="350" xml:space="preserve" y="150">
27
<title>27</title>
</text>
<path d="M 400 150 L 403 143 L 497 143 L 500 150 L 497 157 L 403 157 Z" fill="none" stroke="#56C126" stroke-width="1"/>
<text dominant-baseline="middle" fill="#D4D4D4" font-family="monospace" font-size="10px" text-anchor="middle" x="450" xml:space="preserve" y="150">
10
<title>10</title>
</text>
<path d="M 500 150 L 503 143 L 597 143 L 600 150 L 597 157 L 503 157 Z" fill="none" stroke="#56C126" stroke-width="1"/>
<text dominant-baseline="middle" fill="#D4D4D4" font-family="monospace" font-size="10px" text-anchor="middle" x="550" xml:space="preserve" y="150">
3a
<title>3a</title>
</text>
<path d="M 600 150 L 603 143 L 697 143 L 700 150 L 697 157 L 603 157 Z" fill="none" stroke="#56C126" stroke-width="1"/>
<text dominant-baseline="middle" fill="#D4D4D4" font-family="monospace" font-size="10px" text-anchor="middle" x="650" xml:space="preserve" y="150">
1b
<title>1b</title>
</text>
<path d="M 700 150 L 703 143 L 797 143 L 800 150 L 797 157 L 703 157 Z" fill="none" stroke="#56C126" stroke-width="1"/>
<text dominant-baseline="middle" fill="#D4D4D4" font-family="monospace" font-size="10px" text-anchor="middle" x="750" xml:space="preserve" y="150">
23
<title>23</title>
</text>
</svg>