<svg viewBox="0 0 900 320" xmlns="http://www.w3.org/2000/svg">
<defs>
<clipPath id="clip">
<rect height="320" width="900" x="0" y="0"/>
</clipPath>
</defs>
<rect fill="#0B151D" height="320" stroke="darkblue" width="900" x="0" y="0"/>
<line stroke="#333333" stroke-width="1" x1="200" x2="200" y1="0" y2="320"/>
<text clip-path="url(#clip)" dominant-baseline="middle" fill="#D4D4D4" font-family="monospace" font-size="10px" text-anchor="middle" x="200" y="10">
0
</text>
<line stroke="#333333" stroke-width="1" x1="300" x2="300" y1="0" y2="320"/>
<text clip-path="url(#clip)" dominant-baseline="middle" fill="#D4D4D4" font-family="monospace" font-size="10px" text-anchor="middle" x="300" y="10">
100
</text>
<line stroke="#333333" stroke-width="1" x1="400" x2="400" y1="0" y2="320"/>
<text clip-path="url(#clip)" dominant-baseline="middle" fill="#D4D4D4" font-family="monospace" font-size="10px" text-anchor="middle" x="400" y="10">
200
</text>
<line stroke="#333333" stroke-width="1" x1="500" x2="500" y1="0" y2="320"/>
<text clip-path="url(#clip)" dominant-baseline="middle" fill="#D4D4D4" font-family="monospace" font-size="10px" text-anchor="middle" x="500" y="10">
300
</text>
<line stroke="#333333" stroke-width="1" x1="600" x2="600" y1="0" y2="320"/>
<text clip-path="url(#clip)" dominant-baseline="middle" fill="#D4D4D4" font-family="monospace" font-size="10px" text-anchor="middle" x="600" y="10">
400
</text>
<line stroke="#333333" stroke-width="1" x1="700" x2="700" y1="0" y2="320"/>
<text clip-path="url(#clip)" dominant-baseline="middle" fill="#D4D4D4" font-family="monospace" font-size="10px" text-anchor="middle" x="700" y="10">
500
</text>
<line stroke="#333333" stroke-width="1" x1="800" x2="800" y1="0" y2="320"/>
<text clip-path="url(#clip)" dominant-baseline="middle" fill="#D4D4D4" font-family="monospace" font-size="10px" text-anchor="middle" x="800" y="10">
600
</text>
<line stroke="#333333" stroke-width="1" x1="900" x2="900" y1="0" y2="320"/>
<text clip-path="url(#clip)" dominant-baseline="middle" fill="#D4D4D4" font-family="monospace" font-size="10px" text-anchor="middle" x="900" y="10">
700
</text>
<text dominant-baseline="middle" fill="#D4D4D4" font-family="monospace" font-size="10px" text-anchor="start" x="3" y="10">
Time:
</text>
<text dominant-baseline="middle" fill="#D4D4D4" font-family="monospace" font-size="10px" text-anchor="start" x="3" xml:space="preserve" y="30">
.fsm.event
<title>top.fsm.event</title>
</text>
<path d="M 200 30 L 200 37 L 300 37 L 300 30" fill="none" stroke="#56C126" stroke-width="1"/>
<rect fill="#1C400C" height="14" stroke="none" width="98" x="301" y="23"/>
<path d="M 300 30 L 300 23 L 400 23 L 400 30" fill="none" stroke="#56C126" stroke-width="1"/>
<path d="M 400 30 L 400 37 L 500 37 L 500 30" fill="none" stroke="#56C126" stroke-width="1"/>
<rect fill="#1C400C" height="14" stroke="none" width="398" x="501" y="23"/>
<path d="M 500 30 L 500 23 L 900 23 L 900 30" fill="none" stroke="#56C126" stroke-width="1"/>
<text dominant-baseline="middle" fill="#D4D4D4" font-family="monospace" font-size="10px" text-anchor="start" x="3" xml:space="preserve" y="50">
.fsm.event#Start
<title>top.fsm.event#Start</title>
</text>
<path d="M 200 50 L 203 43 L 297 43 L 300 50 L 297 57 L 203 57 Z" fill="none" stroke="#56C126" stroke-width="1"/>
<text dominant-baseline="middle" fill="#D4D4D4" font-family="monospace" font-size="10px" text-anchor="middle" x="250" xml:space="preserve" y="50">

<title></title>
</text>
<path d="M 400 50 L 403 43 L 497 43 L 500 50 L 497 57 L 403 57 Z" fill="none" stroke="#56C126" stroke-width="1"/>
<text dominant-baseline="middle" fill="#D4D4D4" font-family="monospace" font-size="10px" text-anchor="middle" x="450" xml:space="preserve" y="50">

<title></title>
</text>
<text dominant-baseline="middle" fill="#D4D4D4" font-family="monospace" font-size="10px" text-anchor="start" x="3" xml:space="preserve" y="70">
.fsm.event#Stop
<title>top.fsm.event#Stop</title>
</text>
<path d="M 300 70 L 303 63 L 397 63 L 400 70 L 397 77 L 303 77 Z" fill="none" stroke="#56C126" stroke-width="1"/>
<text dominant-baseline="middle" fill="#D4D4D4" font-family="monospace" font-size="10px" text-anchor="middle" x="350" xml:space="preserve" y="70">

<title></title>
</text>
<path d="M 500 70 L 503 63 L 897 63 L 900 70 L 897 77 L 503 77 Z" fill="none" stroke="#56C126" stroke-width="1"/>
<text dominant-baseline="middle" fill="#D4D4D4" font-family="monospace" font-size="10px" text-anchor="middle" x="700" xml:space="preserve" y="70">

<title></title>
</text>
<text dominant-baseline="middle" fill="#D4D4D4" font-family="monospace" font-size="10px" text-anchor="start" x="3" xml:space="preserve" y="90">
.fsm.next_state
<title>top.fsm.next_state</title>
</text>
<path d="M 200 90 L 203 83 L 297 83 L 300 90 L 297 97 L 203 97 Z" fill="none" stroke="#56C126" stroke-width="1"/>
<text dominant-baseline="middle" fill="#D4D4D4" font-family="monospace" font-size="10px" text-anchor="middle" x="250" xml:space="preserve" y="90">
Running
<title>Running</title>
</text>
<path d="M 300 90 L 303 83 L 397 83 L 400 90 L 397 97 L 303 97 Z" fill="none" stroke="#56C126" stroke-width="1"/>
<text dominant-baseline="middle" fill="#D4D4D4" font-family="monospace" font-size="10px" text-anchor="middle" x="350" xml:space="preserve" y="90">
Paused
<title>Paused</title>
</text>
<path d="M 400 90 L 403 83 L 497 83 L 500 90 L 497 97 L 403 97 Z" fill="none" stroke="#56C126" stroke-width="1"/>
<text dominant-baseline="middle" fill="#D4D4D4" font-family="monospace" font-size="10px" text-anchor="middle" x="450" xml:space="preserve" y="90">
Running
<title>Running</title>
</text>
<path d="M 500 90 L 503 83 L 597 83 L 600 90 L 597 97 L 503 97 Z" fill="none" stroke="#56C126" stroke-width="1"/>
<text dominant-baseline="middle" fill="#D4D4D4" font-family="monospace" font-size="10px" text-anchor="middle" x="550" xml:space="preserve" y="90">
Paused
<title>Paused</title>
</text>
<path d="M 600 90 L 603 83 L 697 83 L 700 90 L 697 97 L 603 97 Z" fill="none" stroke="#56C126" stroke-width="1"/>
<text dominant-baseline="middle" fill="#D4D4D4" font-family="monospace" font-size="10px" text-anchor="middle" x="650" xml:space="preserve" y="90">
Stopped
<title>Stopped</title>
</text>
<path d="M 700 90 L 703 83 L 797 83 L 800 90 L 797 97 L 703 97 Z" fill="none" stroke="#56C126" stroke-width="1"/>
<text dominant-baseline="middle" fill="#D4D4D4" font-family="monospace" font-size="10px" text-anchor="middle" x="750" xml:space="preserve" y="90">
Idle
<title>Idle</title>
</text>
<path d="M 800 90 L 803 83 L 897 83 L 900 90 L 897 97 L 803 97 Z" fill="none" stroke="#56C126" stroke-width="1"/>
<text dominant-baseline="middle" fill="#D4D4D4" font-family="monospace" font-size="10px" text-anchor="middle" x="850" xml:space="preserve" y="90">
Broken
<title>Broken</title>
</text>
<text dominant-baseline="middle" fill="#D4D4D4" font-family="monospace" font-size="10px" text-anchor="start" x="3" xml:space="preserve" y="110">
   #Idle
<title>top.fsm.next_state#Idle</title>
</text>
<path d="M 700 110 L 703 103 L 797 103 L 800 110 L 797 117 L 703 117 Z" fill="none" stroke="#56C126" stroke-width="1"/>
<text dominant-baseline="middle" fill="#D4D4D4" font-family="monospace" font-size="10px" text-anchor="middle" x="750" xml:space="preserve" y="110">

<title></title>
</text>
<text dominant-baseline="middle" fill="#D4D4D4" font-family="monospace" font-size="10px" text-anchor="start" x="3" xml:space="preserve" y="130">
   #Running
<title>top.fsm.next_state#Running</title>
</text>
<path d="M 200 130 L 203 123 L 297 123 L 300 130 L 297 137 L 203 137 Z" fill="none" stroke="#56C126" stroke-width="1"/>
<text dominant-baseline="middle" fill="#D4D4D4" font-family="monospace" font-size="10px" text-anchor="middle" x="250" xml:space="preserve" y="130">

<title></title>
</text>
<path d="M 400 130 L 403 123 L 497 123 L 500 130 L 497 137 L 403 137 Z" fill="none" stroke="#56C126" stroke-width="1"/>
<text dominant-baseline="middle" fill="#D4D4D4" font-family="monospace" font-size="10px" text-anchor="middle" x="450" xml:space="preserve" y="130">

<title></title>
</text>
<text dominant-baseline="middle" fill="#D4D4D4" font-family="monospace" font-size="10px" text-anchor="start" x="3" xml:space="preserve" y="150">
   #Paused
<title>top.fsm.next_state#Paused</title>
</text>
<path d="M 300 150 L 303 143 L 397 143 L 400 150 L 397 157 L 303 157 Z" fill="none" stroke="#56C126" stroke-width="1"/>
<text dominant-baseline="middle" fill="#D4D4D4" font-family="monospace" font-size="10px" text-anchor="middle" x="350" xml:space="preserve" y="150">

<title></title>
</text>
<path d="M 500 150 L 503 143 L 597 143 L 600 150 L 597 157 L 503 157 Z" fill="none" stroke="#56C126" stroke-width="1"/>
<text dominant-baseline="middle" fill="#D4D4D4" font-family="monospace" font-size="10px" text-anchor="middle" x="550" xml:space="preserve" y="150">

<title></title>
</text>
<text dominant-baseline="middle" fill="#D4D4D4" font-family="monospace" font-size="10px" text-anchor="start" x="3" xml:space="preserve" y="170">
   #Stopped
<title>top.fsm.next_state#Stopped</title>
</text>
<path d="M 600 170 L 603 163 L 697 163 L 700 170 L 697 177 L 603 177 Z" fill="none" stroke="#56C126" stroke-width="1"/>
<text dominant-baseline="middle" fill="#D4D4D4" font-family="monospace" font-size="10px" text-anchor="middle" x="650" xml:space="preserve" y="170">

<title></title>
</text>
<text dominant-baseline="middle" fill="#D4D4D4" font-family="monospace" font-size="10px" text-anchor="start" x="3" xml:space="preserve" y="190">
   #Broken
<title>top.fsm.next_state#Broken</title>
</text>
<path d="M 800 190 L 803 183 L 897 183 L 900 190 L 897 197 L 803 197 Z" fill="none" stroke="#56C126" stroke-width="1"/>
<text dominant-baseline="middle" fill="#D4D4D4" font-family="monospace" font-size="10px" text-anchor="middle" x="850" xml:space="preserve" y="190">

<title></title>
</text>
<text dominant-baseline="middle" fill="#D4D4D4" font-family="monospace" font-size="10px" text-anchor="start" x="3" xml:space="preserve" y="210">
.fsm.state
<title>top.fsm.state</title>
</text>
<path d="M 200 210 L 203 203 L 297 203 L 300 210 L 297 217 L 203 217 Z" fill="none" stroke="#56C126" stroke-width="1"/>
<text dominant-baseline="middle" fill="#D4D4D4" font-family="monospace" font-size="10px" text-anchor="middle" x="250" xml:space="preserve" y="210">
Idle
<title>Idle</title>
</text>
<path d="M 300 210 L 303 203 L 397 203 L 400 210 L 397 217 L 303 217 Z" fill="none" stroke="#56C126" stroke-width="1"/>
<text dominant-baseline="middle" fill="#D4D4D4" font-family="monospace" font-size="10px" text-anchor="middle" x="350" xml:space="preserve" y="210">
Running
<title>Running</title>
</text>
<path d="M 400 210 L 403 203 L 497 203 L 500 210 L 497 217 L 403 217 Z" fill="none" stroke="#56C126" stroke-width="1"/>
<text dominant-baseline="middle" fill="#D4D4D4" font-family="monospace" font-size="10px" text-anchor="middle" x="450" xml:space="preserve" y="210">
Paused
<title>Paused</title>
</text>
<path d="M 500 210 L 503 203 L 597 203 L 600 210 L 597 217 L 503 217 Z" fill="none" stroke="#56C126" stroke-width="1"/>
<text dominant-baseline="middle" fill="#D4D4D4" font-family="monospace" font-size="10px" text-anchor="middle" x="550" xml:space="preserve" y="210">
Running
<title>Running</title>
</text>
<path d="M 600 210 L 603 203 L 697 203 L 700 210 L 697 217 L 603 217 Z" fill="none" stroke="#56C126" stroke-width="1"/>
<text dominant-baseline="middle" fill="#D4D4D4" font-family="monospace" font-size="10px" text-anchor="middle" x="650" xml:space="preserve" y="210">
Paused
<title>Paused</title>
</text>
<path d="M 700 210 L 703 203 L 797 203 L 800 210 L 797 217 L 703 217 Z" fill="none" stroke="#56C126" stroke-width="1"/>
<text dominant-baseline="middle" fill="#D4D4D4" font-family="monospace" font-size="10px" text-anchor="middle" x="750" xml:space="preserve" y="210">
Stopped
<title>Stopped</title>
</text>
<path d="M 800 210 L 803 203 L 897 203 L 900 210 L 897 217 L 803 217 Z" fill="none" stroke="#56C126" stroke-width="1"/>
<text dominant-baseline="middle" fill="#D4D4D4" font-family="monospace" font-size="10px" text-anchor="middle" x="850" xml:space="preserve" y="210">
Idle
<title>Idle</title>
</text>
<text dominant-baseline="middle" fill="#D4D4D4" font-family="monospace" font-size="10px" text-anchor="start" x="3" xml:space="preserve" y="230">
   #Idle
<title>top.fsm.state#Idle</title>
</text>
<path d="M 200 230 L 203 223 L 297 223 L 300 230 L 297 237 L 203 237 Z" fill="none" stroke="#56C126" stroke-width="1"/>
<text dominant-baseline="middle" fill="#D4D4D4" font-family="monospace" font-size="10px" text-anchor="middle" x="250" xml:space="preserve" y="230">

<title></title>
</text>
<path d="M 800 230 L 803 223 L 897 223 L 900 230 L 897 237 L 803 237 Z" fill="none" stroke="#56C126" stroke-width="1"/>
<text dominant-baseline="middle" fill="#D4D4D4" font-family="monospace" font-size="10px" text-anchor="middle" x="850" xml:space="preserve" y="230">

<title></title>
</text>
<text dominant-baseline="middle" fill="#D4D4D4" font-family="monospace" font-size="10px" text-anchor="start" x="3" xml:space="preserve" y="250">
   #Running
<title>top.fsm.state#Running</title>
</text>
<path d="M 300 250 L 303 243 L 397 243 L 400 250 L 397 257 L 303 257 Z" fill="none" stroke="#56C126" stroke-width="1"/>
<text dominant-baseline="middle" fill="#D4D4D4" font-family="monospace" font-size="10px" text-anchor="middle" x="350" xml:space="preserve" y="250">

<title></title>
</text>
<path d="M 500 250 L 503 243 L 597 243 L 600 250 L 597 257 L 503 257 Z" fill="none" stroke="#56C126" stroke-width="1"/>
<text dominant-baseline="middle" fill="#D4D4D4" font-family="monospace" font-size="10px" text-anchor="middle" x="550" xml:space="preserve" y="250">

<title></title>
</text>
<text dominant-baseline="middle" fill="#D4D4D4" font-family="monospace" font-size="10px" text-anchor="start" x="3" xml:space="preserve" y="270">
   #Paused
<title>top.fsm.state#Paused</title>
</text>
<path d="M 400 270 L 403 263 L 497 263 L 500 270 L 497 277 L 403 277 Z" fill="none" stroke="#56C126" stroke-width="1"/>
<text dominant-baseline="middle" fill="#D4D4D4" font-family="monospace" font-size="10px" text-anchor="middle" x="450" xml:space="preserve" y="270">

<title></title>
</text>
<path d="M 600 270 L 603 263 L 697 263 L 700 270 L 697 277 L 603 277 Z" fill="none" stroke="#56C126" stroke-width="1"/>
<text dominant-baseline="middle" fill="#D4D4D4" font-family="monospace" font-size="10px" text-anchor="middle" x="650" xml:space="preserve" y="270">

<title></title>
</text>
<text dominant-baseline="middle" fill="#D4D4D4" font-family="monospace" font-size="10px" text-anchor="start" x="3" xml:space="preserve" y="290">
   #Stopped
<title>top.fsm.state#Stopped</title>
</text>
<path d="M 700 290 L 703 283 L 797 283 L 800 290 L 797 297 L 703 297 Z" fill="none" stroke="#56C126" stroke-width="1"/>
<text dominant-baseline="middle" fill="#D4D4D4" font-family="monospace" font-size="10px" text-anchor="middle" x="750" xml:space="preserve" y="290">

<title></title>
</text>
<text dominant-baseline="middle" fill="#D4D4D4" font-family="monospace" font-size="10px" text-anchor="start" x="3" xml:space="preserve" y="310">
   #Broken
<title>top.fsm.state#Broken</title>
</text>
</svg>