<svg viewBox="0 0 800 80" xmlns="http://www.w3.org/2000/svg">
<defs>
<clipPath id="clip">
<rect height="80" width="800" x="0" y="0"/>
</clipPath>
</defs>
<rect fill="#0B151D" height="80" stroke="darkblue" width="800" x="0" y="0"/>
<line stroke="#333333" stroke-width="1" x1="200" x2="200" y1="0" y2="80"/>
<text clip-path="url(#clip)" dominant-baseline="middle" fill="#D4D4D4" font-family="monospace" font-size="10px" text-anchor="middle" x="200" y="10">
0
</text>
<line stroke="#333333" stroke-width="1" x1="300" x2="300" y1="0" y2="80"/>
<text clip-path="url(#clip)" dominant-baseline="middle" fill="#D4D4D4" font-family="monospace" font-size="10px" text-anchor="middle" x="300" y="10">
100
</text>
<line stroke="#333333" stroke-width="1" x1="400" x2="400" y1="0" y2="80"/>
<text clip-path="url(#clip)" dominant-baseline="middle" fill="#D4D4D4" font-family="monospace" font-size="10px" text-anchor="middle" x="400" y="10">
200
</text>
<line stroke="#333333" stroke-width="1" x1="500" x2="500" y1="0" y2="80"/>
<text clip-path="url(#clip)" dominant-baseline="middle" fill="#D4D4D4" font-family="monospace" font-size="10px" text-anchor="middle" x="500" y="10">
300
</text>
<line stroke="#333333" stroke-width="1" x1="600" x2="600" y1="0" y2="80"/>
<text clip-path="url(#clip)" dominant-baseline="middle" fill="#D4D4D4" font-family="monospace" font-size="10px" text-anchor="middle" x="600" y="10">
400
</text>
<line stroke="#333333" stroke-width="1" x1="700" x2="700" y1="0" y2="80"/>
<text clip-path="url(#clip)" dominant-baseline="middle" fill="#D4D4D4" font-family="monospace" font-size="10px" text-anchor="middle" x="700" y="10">
500
</text>
<line stroke="#333333" stroke-width="1" x1="800" x2="800" y1="0" y2="80"/>
<text clip-path="url(#clip)" dominant-baseline="middle" fill="#D4D4D4" font-family="monospace" font-size="10px" text-anchor="middle" x="800" y="10">
600
</text>
<text dominant-baseline="middle" fill="#D4D4D4" font-family="monospace" font-size="10px" text-anchor="start" x="3" y="10">
Time:
</text>
<text dominant-baseline="middle" fill="#D4D4D4" font-family="monospace" font-size="10px" text-anchor="start" x="3" xml:space="preserve" y="30">
.kernel_1.a
<title>top.kernel_1.a</title>
</text>
<path d="M 200 30 L 203 23 L 297 23 L 300 30 L 297 37 L 203 37 Z" fill="none" stroke="#56C126" stroke-width="1"/>
<text dominant-baseline="middle" fill="#D4D4D4" font-family="monospace" font-size="10px" text-anchor="middle" x="250" xml:space="preserve" y="30">
00
<title>00</title>
</text>
<path d="M 300 30 L 303 23 L 397 23 L 400 30 L 397 37 L 303 37 Z" fill="none" stroke="#56C126" stroke-width="1"/>
<text dominant-baseline="middle" fill="#D4D4D4" font-family="monospace" font-size="10px" text-anchor="middle" x="350" xml:space="preserve" y="30">
04
<title>04</title>
</text>
<path d="M 400 30 L 403 23 L 497 23 L 500 30 L 497 37 L 403 37 Z" fill="none" stroke="#56C126" stroke-width="1"/>
<text dominant-baseline="middle" fill="#D4D4D4" font-family="monospace" font-size="10px" text-anchor="middle" x="450" xml:space="preserve" y="30">
0f
<title>0f</title>
</text>
<path d="M 500 30 L 503 23 L 597 23 L 600 30 L 597 37 L 503 37 Z" fill="none" stroke="#56C126" stroke-width="1"/>
<text dominant-baseline="middle" fill="#D4D4D4" font-family="monospace" font-size="10px" text-anchor="middle" x="550" xml:space="preserve" y="30">
17
<title>17</title>
</text>
<path d="M 600 30 L 603 23 L 697 23 L 700 30 L 697 37 L 603 37 Z" fill="none" stroke="#56C126" stroke-width="1"/>
<text dominant-baseline="middle" fill="#D4D4D4" font-family="monospace" font-size="10px" text-anchor="middle" x="650" xml:space="preserve" y="30">
2a
<title>2a</title>
</text>
<path d="M 700 30 L 703 23 L 797 23 L 800 30 L 797 37 L 703 37 Z" fill="none" stroke="#56C126" stroke-width="1"/>
<text dominant-baseline="middle" fill="#D4D4D4" font-family="monospace" font-size="10px" text-anchor="middle" x="750" xml:space="preserve" y="30">
38
<title>38</title>
</text>
<text dominant-baseline="middle" fill="#D4D4D4" font-family="monospace" font-size="10px" text-anchor="start" x="3" xml:space="preserve" y="50">
.kernel_1.b
<title>top.kernel_1.b</title>
</text>
<path d="M 200 50 L 203 43 L 297 43 L 300 50 L 297 57 L 203 57 Z" fill="none" stroke="#56C126" stroke-width="1"/>
<text dominant-baseline="middle" fill="#D4D4D4" font-family="monospace" font-size="10px" text-anchor="middle" x="250" xml:space="preserve" y="50">
05
<title>05</title>
</text>
<path d="M 300 50 L 303 43 L 397 43 L 400 50 L 397 57 L 303 57 Z" fill="none" stroke="#56C126" stroke-width="1"/>
<text dominant-baseline="middle" fill="#D4D4D4" font-family="monospace" font-size="10px" text-anchor="middle" x="350" xml:space="preserve" y="50">
0d
<title>0d</title>
</text>
<path d="M 400 50 L 403 43 L 497 43 L 500 50 L 497 57 L 403 57 Z" fill="none" stroke="#56C126" stroke-width="1"/>
<text dominant-baseline="middle" fill="#D4D4D4" font-family="monospace" font-size="10px" text-anchor="middle" x="450" xml:space="preserve" y="50">
2a
<title>2a</title>
</text>
<path d="M 500 50 L 503 43 L 597 43 L 600 50 L 597 57 L 503 57 Z" fill="none" stroke="#56C126" stroke-width="1"/>
<text dominant-baseline="middle" fill="#D4D4D4" font-family="monospace" font-size="10px" text-anchor="middle" x="550" xml:space="preserve" y="50">
40
<title>40</title>
</text>
<path d="M 600 50 L 603 43 L 697 43 L 700 50 L 697 57 L 603 57 Z" fill="none" stroke="#56C126" stroke-width="1"/>
<text dominant-baseline="middle" fill="#D4D4D4" font-family="monospace" font-size="10px" text-anchor="middle" x="650" xml:space="preserve" y="50">
55
<title>55</title>
</text>
<path d="M 700 50 L 703 43 L 797 43 L 800 50 L 797 57 L 703 57 Z" fill="none" stroke="#56C126" stroke-width="1"/>
<text dominant-baseline="middle" fill="#D4D4D4" font-family="monospace" font-size="10px" text-anchor="middle" x="750" xml:space="preserve" y="50">
7f
<title>7f</title>
</text>
<text dominant-baseline="middle" fill="#D4D4D4" font-family="monospace" font-size="10px" text-anchor="start" x="3" xml:space="preserve" y="70">
.kernel_1.output
<title>top.kernel_1.output</title>
</text>
<path d="M 200 70 L 203 63 L 297 63 L 300 70 L 297 77 L 203 77 Z" fill="none" stroke="#56C126" stroke-width="1"/>
<text dominant-baseline="middle" fill="#D4D4D4" font-family="monospace" font-size="10px" text-anchor="middle" x="250" xml:space="preserve" y="70">
05
<title>05</title>
</text>
<path d="M 300 70 L 303 63 L 397 63 L 400 70 L 397 77 L 303 77 Z" fill="none" stroke="#56C126" stroke-width="1"/>
<text dominant-baseline="middle" fill="#D4D4D4" font-family="monospace" font-size="10px" text-anchor="middle" x="350" xml:space="preserve" y="70">
11
<title>11</title>
</text>
<path d="M 400 70 L 403 63 L 497 63 L 500 70 L 497 77 L 403 77 Z" fill="none" stroke="#56C126" stroke-width="1"/>
<text dominant-baseline="middle" fill="#D4D4D4" font-family="monospace" font-size="10px" text-anchor="middle" x="450" xml:space="preserve" y="70">
39
<title>39</title>
</text>
<path d="M 500 70 L 503 63 L 597 63 L 600 70 L 597 77 L 503 77 Z" fill="none" stroke="#56C126" stroke-width="1"/>
<text dominant-baseline="middle" fill="#D4D4D4" font-family="monospace" font-size="10px" text-anchor="middle" x="550" xml:space="preserve" y="70">
57
<title>57</title>
</text>
<path d="M 600 70 L 603 63 L 697 63 L 700 70 L 697 77 L 603 77 Z" fill="none" stroke="#56C126" stroke-width="1"/>
<text dominant-baseline="middle" fill="#D4D4D4" font-family="monospace" font-size="10px" text-anchor="middle" x="650" xml:space="preserve" y="70">
7f
<title>7f</title>
</text>
<path d="M 700 70 L 703 63 L 797 63 L 800 70 L 797 77 L 703 77 Z" fill="none" stroke="#56C126" stroke-width="1"/>
<text dominant-baseline="middle" fill="#D4D4D4" font-family="monospace" font-size="10px" text-anchor="middle" x="750" xml:space="preserve" y="70">
b7
<title>b7</title>
</text>
</svg>